<svg width="180" height="46" viewBox="0 0 180 46" fill="none" xmlns="http://www.w3.org/2000/svg">
<path d="M79.7036 13.234C82.9456 13.234 84.9858 14.9441 84.9858 17.6652H81.7033C81.7033 16.6542 80.9077 16.0325 79.663 16.0325C78.318 16.0325 77.4603 16.6154 77.4603 17.5673C77.4603 18.4417 77.9285 18.8698 78.9893 19.0838L81.2541 19.5301C83.9466 20.0561 85.2319 21.2789 85.2319 23.5537C85.2319 26.3342 82.9482 28.1421 79.4815 28.1421C76.0148 28.1421 73.9341 26.4115 73.9341 23.7109H77.2166C77.2166 24.7607 78.0313 25.3436 79.5004 25.3436C80.9695 25.3436 81.9276 24.7789 81.9276 23.866C81.9276 23.069 81.5406 22.6614 80.542 22.4656L78.2365 22.0193C75.5443 21.4953 74.1587 20.0357 74.1587 17.6835C74.1587 15.0785 76.4641 13.2317 79.7061 13.2317L79.7036 13.234ZM80.7023 12.5144H78.4375L80.1504 9.28772H82.9648L80.6999 12.5144H80.7023Z" fill="white"/>
<path d="M90.7172 24.9746H96.6731V27.8893H87.4131V13.5049H90.7172V24.9746Z" fill="white"/>
<path d="M102.058 27.8916H98.7542V13.5072H102.058V27.8916Z" fill="white"/>
<path d="M103.936 13.5049H107.383L109.361 19.7441C109.687 20.7695 109.939 21.8148 110.116 22.8729C110.36 21.4543 110.606 20.6368 110.871 19.7441L112.727 13.5049H116.418L118.193 19.7441C118.437 20.6185 118.683 21.493 118.948 22.8729C119.254 21.4156 119.479 20.6186 119.744 19.7829L121.763 13.5049H125.129L120.52 27.8892H117.297L114.545 18.4417L111.71 27.8893H108.468L103.94 13.505L103.936 13.5049Z" fill="white"/>
<path d="M130.306 27.8916H127.002V13.5072H130.306V27.8916Z" fill="white"/>
<path d="M133.448 27.8916V13.5074H136.711L143.076 22.6636V13.5072H146.339V27.8915H143.076L136.711 18.7557V27.8915H133.448V27.8916ZM141.117 12.5144H138.852L140.565 9.28772H143.379L141.114 12.5144H141.117Z" fill="white"/>
<path d="M154.029 13.234C157.271 13.234 159.312 14.9441 159.312 17.6652H156.029C156.029 16.6542 155.233 16.0325 153.989 16.0325C152.644 16.0325 151.786 16.6154 151.786 17.5673C151.786 18.4417 152.254 18.8698 153.315 19.0838L155.58 19.5301C158.272 20.0561 159.558 21.2789 159.558 23.5537C159.558 26.3342 157.274 28.1421 153.807 28.1421C150.34 28.1421 148.26 26.4115 148.26 23.7109H151.543C151.543 24.7606 152.357 25.3436 153.826 25.3436C155.295 25.3436 156.254 24.7788 156.254 23.8659C156.254 23.069 155.867 22.6613 154.866 22.4655L152.56 22.019C149.868 21.4953 148.482 20.0357 148.482 17.6834C148.482 15.0784 150.787 13.2317 154.029 13.2317V13.234Z" fill="white"/>
<path d="M165.043 20.3862L170.488 13.5049H174.384L169.449 19.6484L174.425 27.8915H170.612L167.286 22.3306L165.043 25.1295V27.8893H161.739V13.5049H165.043V20.3862Z" fill="white"/>
<path d="M179.504 27.8916H176.2V13.5072H179.504V27.8916Z" fill="white"/>
<path d="M100.076 35.6085V37.1023H99.4807V32.9193H101.187C102.049 32.9193 102.601 33.4566 102.601 34.2627C102.601 35.0688 102.042 35.6107 101.187 35.6107H100.076V35.6085ZM100.076 33.427V35.0984H101.06C101.648 35.0984 101.977 34.7682 101.977 34.2537C101.977 33.7391 101.643 33.4271 101.084 33.4271L100.076 33.427Z" fill="white"/>
<path d="M105.114 37.1704C103.876 37.1704 103.014 36.2801 103.014 35.0071C103.014 33.7342 103.881 32.8439 105.121 32.8439C106.361 32.8439 107.233 33.7342 107.233 35.0071C107.233 36.2801 106.359 37.1704 105.114 37.1704ZM105.121 33.3927C104.228 33.3927 103.64 34.0348 103.64 35.0071C103.64 35.9794 104.228 36.6262 105.121 36.6262C106.015 36.6262 106.609 35.9726 106.609 35.0071C106.609 34.0416 106.015 33.3928 105.121 33.3928V33.3927Z" fill="white"/>
<path d="M107.993 37.0998V32.9168H108.576L110.088 36.4349L111.6 32.9168H112.195V37.0998H111.612V35.4444C111.612 34.6633 111.619 34.3787 111.648 34.085L110.368 37.0998H109.809L108.533 34.0963C108.564 34.2989 108.576 34.727 108.576 35.3122V37.0997L107.993 37.0998Z" fill="white"/>
<path d="M115.052 37.1704C113.815 37.1704 112.952 36.2801 112.952 35.0071C112.952 33.7342 113.82 32.8439 115.06 32.8439C116.299 32.8439 117.171 33.7342 117.171 35.0071C117.171 36.2801 116.297 37.1704 115.052 37.1704ZM115.06 33.3927C114.166 33.3927 113.578 34.0348 113.578 35.0071C113.578 35.9794 114.168 36.6262 115.06 36.6262C115.951 36.6262 116.548 35.9726 116.548 35.0071C116.548 34.0416 115.953 33.3928 115.06 33.3928V33.3927Z" fill="white"/>
<path d="M117.668 35.0118C117.668 33.7207 118.524 32.8486 119.78 32.8486C120.769 32.8486 121.529 33.411 121.692 34.2672H121.054C120.889 33.723 120.399 33.3928 119.761 33.3928C118.875 33.3928 118.292 34.0283 118.292 35.0073C118.292 35.9862 118.875 36.6217 119.761 36.6217C120.404 36.6217 120.915 36.2915 121.078 35.777H121.709C121.52 36.6104 120.736 37.166 119.747 37.166C118.498 37.166 117.664 36.3098 117.664 35.0142L117.668 35.0118Z" fill="white"/>
<path d="M124.098 37.0998V32.9168H125.524C126.835 32.9168 127.722 33.7616 127.722 35.0117C127.722 36.2619 126.847 37.0998 125.548 37.0998H124.097H124.098ZM124.692 33.436V36.5713H125.504C126.482 36.5713 127.1 35.9701 127.1 35.0092C127.1 34.0483 126.482 33.4357 125.481 33.4357H124.692V33.436Z" fill="white"/>
<path d="M128.481 37.0998V32.9168H130.139C131.08 32.9168 131.639 33.3904 131.639 34.1715C131.639 34.7499 131.336 35.1666 130.789 35.3351L131.682 37.0998H131.021L130.201 35.4444H129.078V37.0998H128.484H128.481ZM129.076 34.9411H130.144C130.696 34.9411 131.011 34.6588 131.011 34.1785C131.011 33.6983 130.684 33.4271 130.137 33.4271H129.074V34.9436L129.076 34.9411Z" fill="white"/>
<path d="M134.272 37.1704C133.035 37.1704 132.172 36.2801 132.172 35.0071C132.172 33.7342 133.04 32.844 134.279 32.844C135.519 32.844 136.391 33.7343 136.391 35.0073C136.391 36.2802 135.517 37.1704 134.272 37.1704ZM134.277 33.3927C133.386 33.3928 132.796 34.0351 132.796 35.0073C132.796 35.9794 133.386 36.6263 134.277 36.6263C135.168 36.6263 135.765 35.9727 135.765 35.0073C135.765 34.0418 135.171 33.3928 134.277 33.3928V33.3927Z" fill="white"/>
<path d="M137.514 35.0345C137.514 36.0478 138.133 36.6308 139.039 36.6308C139.786 36.6308 140.386 36.2664 140.386 35.4216V35.3009H138.917V34.7978H140.945V37.1069H140.448L140.405 36.5399C140.168 36.9042 139.633 37.1707 138.991 37.1707C137.746 37.1707 136.891 36.3145 136.891 35.0233C136.891 33.7322 137.753 32.8487 139.046 32.8487C140.004 32.8487 140.751 33.3747 140.897 34.1785H140.266C140.102 33.6457 139.617 33.3792 139.034 33.3792C138.088 33.3792 137.517 34.0441 137.517 35.0347L137.514 35.0345Z" fill="white"/>
<path d="M143.635 37.1704C142.398 37.1704 141.535 36.2801 141.535 35.0071C141.535 33.7342 142.402 32.8439 143.642 32.8439C144.882 32.8439 145.754 33.7343 145.754 35.0072C145.754 36.2802 144.88 37.1704 143.635 37.1704ZM143.642 33.3927C142.749 33.3927 142.161 34.0348 142.161 35.0071C142.161 35.9794 142.749 36.6262 143.642 36.6262C144.536 36.6262 145.128 35.9726 145.128 35.0071C145.128 34.0416 144.533 33.3928 143.642 33.3928V33.3927Z" fill="white"/>
<path d="M145.948 32.9169H146.566L147.367 35.474C147.426 35.6949 147.488 35.9136 147.548 36.2323C147.62 35.8976 147.687 35.6949 147.754 35.474L148.585 32.9169H149.228L150.054 35.474C150.126 35.6994 150.188 35.9203 150.255 36.2323C150.305 35.9787 150.37 35.7278 150.449 35.4808L151.256 32.9168H151.863L150.539 37.0998H149.968L148.905 33.7913L147.83 37.0998H147.248L145.943 32.9169H145.948Z" fill="white"/>
<path d="M151.581 37.0998L153.184 32.9168H153.846L155.454 37.0998H154.828L154.434 36.0592H152.587L152.197 37.0998H151.579H151.581ZM152.771 35.5674H154.259L153.585 33.8209C153.555 33.7415 153.531 33.66 153.514 33.5772C153.494 33.6597 153.469 33.741 153.44 33.8209L152.773 35.5674L152.771 35.5674Z" fill="white"/>
<path d="M96.004 35.1668H76.2202V35.3968H96.004V35.1668Z" fill="white"/>
<path d="M178.276 35.1668H158.492V35.3968H178.276V35.1668Z" fill="white"/>
<path d="M48.8079 3.1031C48.8031 2.27881 48.1902 1.86593 47.3303 2.00813C46.5601 2.13661 46.3226 2.69323 46.098 3.2792C43.2198 10.7926 40.3424 18.307 37.466 25.8224C37.4147 25.957 37.3778 26.0978 37.3296 26.249C37.4355 26.2643 37.4869 26.2766 37.5366 26.2781C41.7436 26.3638 45.95 26.4469 50.1558 26.5274C50.3244 26.5251 50.4909 26.4924 50.6468 26.4311C51.7713 26.0084 52.98 25.8282 54.1863 25.9035C57.7498 26.1298 61.0807 28.9177 60.8127 33.085C60.7887 33.4627 60.609 33.6524 60.2126 33.6906C60.0427 33.699 59.8724 33.699 59.7024 33.6906H58.0995C57.8717 35.1542 57.1063 36.2415 55.9126 37.1117C56.2201 37.1426 56.5293 37.1553 56.8384 37.1499C58.7782 37.153 60.7185 37.1576 62.6594 37.1637C63.0525 37.1637 63.2484 37.3258 63.2434 37.6148C63.2402 37.8902 63.0172 38.0629 62.6466 38.0721C62.4508 38.0767 62.2534 38.0751 62.0561 38.0751C53.4176 38.0751 44.7791 38.0762 36.1405 38.0782C24.5258 38.0782 12.9115 38.0762 1.29781 38.0721C1.02181 38.0721 0.726597 38.1226 0.477943 38.043C0.283799 37.9803 0.0511473 37.7739 0.00941789 37.5949C-0.0499257 37.3411 0.179503 37.1712 0.463496 37.1377C0.568099 37.1295 0.67313 37.1275 0.777995 37.1316C3.37404 37.1285 5.96954 37.125 8.56451 37.121C8.64635 37.121 8.72976 37.1027 8.88678 37.0843C7.79093 36.3258 7.10259 35.3822 6.80737 34.1894C6.67901 34.1817 6.57472 34.171 6.47203 34.171C5.60722 34.168 4.74079 34.171 3.87597 34.1604C3.47163 34.1558 3.29193 33.9876 3.29032 33.613C3.2855 32.5255 3.28921 31.4377 3.30143 30.3495C3.30143 30.2501 3.356 30.0847 3.4234 30.0651C3.7539 29.9641 3.71061 29.7179 3.71233 29.4854C3.72195 28.172 3.74762 26.8597 3.72345 25.546C3.71545 25.0811 3.8807 24.7357 4.19675 24.4083C5.21719 23.3515 6.22908 22.2866 7.23244 21.2136C7.38486 21.045 7.4966 20.8467 7.55978 20.6324C8.20961 18.4333 8.86261 16.2327 9.48033 14.0244C9.84456 12.7216 10.6516 11.9079 12.0619 11.6663C14.9741 11.1692 17.8829 10.6494 20.7983 10.178C21.6823 10.0343 22.5986 9.89666 23.4842 9.96392C25.5588 10.1199 27.627 10.3707 29.6903 10.6399C30.9128 10.7987 32.2286 10.623 33.2939 11.4795V8.94802C32.1018 9.46645 31.5531 9.61003 30.7139 9.6148C28.7661 9.62539 27.1648 8.86238 25.9118 7.49216C24.9074 6.39412 24.0137 5.20588 23.043 4.02526C24.7646 3.69341 26.4333 3.60157 28.105 3.85092C30.6449 4.22864 32.7435 5.21811 33.7271 7.70168C34.6127 7.38206 35.3781 6.89878 35.8658 6.02709C36.3295 7.19547 36.4354 8.33478 36.3391 9.49246C36.2766 10.2357 35.8209 10.7021 35.062 10.8764C34.8614 10.9223 34.6592 10.959 34.4587 10.9988V20.7449C34.6391 20.5281 34.7951 20.2938 34.924 20.0458C37.4305 15.6279 39.9379 11.2104 42.4462 6.79329C43.2773 5.33283 44.1165 3.87694 44.9637 2.42562C45.1537 2.08846 45.414 1.79182 45.7285 1.55385C46.043 1.31588 46.4051 1.14159 46.7928 1.04164C48.1278 0.680706 49.8124 1.2055 49.7386 3.0924M43.9175 11.4928L52.2592 34.5972C52.7839 35.8054 54.3017 36.2213 55.4329 35.4689C56.9442 34.4642 56.7918 32.0602 55.1682 31.2909C54.4221 30.9376 53.4337 31.06 52.816 31.5907C52.7341 31.661 52.686 31.7696 52.6218 31.8598C52.5352 31.9546 52.4501 32.0495 52.3635 32.1427C51.9094 32.9502 51.7745 33.7684 52.2704 34.6079L52.2576 34.5973L43.9175 11.4928ZM19.8856 11.4377C17.4356 11.8536 14.9872 12.2773 12.5371 12.6948C11.5889 12.8569 10.9888 13.3707 10.7353 14.2592C10.1192 16.417 9.49183 18.5718 8.88539 20.7311C8.75186 21.229 8.49112 21.6877 8.12643 22.0662C7.16054 23.0709 6.2091 24.0864 5.23999 25.0881C5.13902 25.1842 5.05997 25.2991 5.00779 25.4257C4.95562 25.5523 4.93144 25.6877 4.93677 25.8237C4.95121 26.9492 4.93838 28.0745 4.93677 29.2003V29.6056C5.69729 29.4389 6.40808 29.2829 7.16215 29.1177V26.8682C7.16215 26.0424 7.15415 25.2166 7.15571 24.3923C7.15732 23.4654 7.66274 22.7452 8.61901 22.5449C10.6134 22.1289 12.6238 21.7879 14.6262 21.4178C14.7545 21.3933 14.8861 21.3842 15.0145 21.3658C16.2098 21.2021 17.0232 21.8185 17.0537 22.9746C17.089 24.3127 17.0648 25.6508 17.0665 26.9891V28.0366C17.2671 28.0443 17.4324 28.0565 17.5992 28.0578C18.5427 28.064 19.4877 28.0563 20.4311 28.079C20.7632 28.0866 20.983 28.001 21.1916 27.7395C22.0613 26.6492 23.1764 25.883 24.6043 25.62C26.4928 25.2728 28.1582 25.7423 29.5862 26.9705C29.9521 27.2855 30.3066 27.6143 30.6853 27.914C29.9665 26.4704 28.8322 25.4809 27.1972 25.0512C25.5767 24.6246 24.038 24.9044 22.4929 25.6461C22.4929 24.7163 22.4833 23.8584 22.504 23.002C22.5072 22.8934 22.65 22.7742 22.7511 22.6839C23.2918 22.2098 23.8291 21.7327 24.3893 21.28C24.6123 21.0996 24.7102 20.913 24.691 20.6377C24.6701 20.3181 24.6861 19.9954 24.6861 19.6467C24.4361 19.633 24.2305 19.6207 24.0235 19.61C23.1011 19.5687 22.6516 19.0592 22.8281 18.1924C23.1282 16.7212 23.4571 15.2561 23.7764 13.788C23.8344 13.4807 23.9088 13.1765 23.9994 12.8765C24.1775 12.3382 24.585 12.0951 25.1706 12.1501C26.8136 12.3061 28.4561 12.4636 30.098 12.6227C30.8634 12.6976 31.2067 13.0464 31.2067 13.7666C31.2067 15.455 31.2008 17.1433 31.189 18.8316C31.1826 19.7293 30.8505 20.0383 29.9199 19.9862C28.5336 19.9082 27.1472 19.8073 25.7626 19.7171C25.6856 19.7124 25.6086 19.7171 25.4754 19.7171C25.4754 20.1789 25.4594 20.6377 25.4818 21.0949C25.4947 21.3733 25.392 21.566 25.177 21.7418C24.7197 22.1165 24.2993 22.5355 23.8228 22.8827C23.481 23.1319 23.3254 23.4042 23.3944 23.8033C23.4096 23.942 23.417 24.0813 23.4166 24.2208C25.1013 23.6427 26.7545 23.6738 28.376 24.314C29.9998 24.9594 31.2031 26.0391 31.9476 27.6525C32.0102 24.1428 32.0727 20.6957 32.1353 17.2487C32.5107 19.009 32.5011 20.7844 32.5573 22.5584C32.6198 24.5327 32.6968 26.5065 32.7883 28.4798C32.8191 29.0404 32.9077 29.5967 33.053 30.1406C33.0669 30.089 33.076 30.0363 33.0803 29.9831C33.1332 24.4808 33.184 18.9784 33.2327 13.476C33.2391 12.6486 32.7321 12.0645 31.8641 11.9482C30.542 11.7708 29.2103 11.647 27.8834 11.5047C26.5035 11.3564 25.1221 11.2187 23.7438 11.0628C23.4887 11.0337 23.3844 11.0704 23.3234 11.3395C22.7089 14.0647 22.0768 16.7853 21.4478 19.5062C21.4372 19.5931 21.4134 19.6781 21.3772 19.7585C21.0354 20.341 20.6857 20.9207 20.2941 21.485C20.7803 17.9569 21.8136 14.5451 22.539 11.0033C21.6357 11.1486 20.7596 11.2831 19.8868 11.4315L19.8856 11.4377ZM19.9129 31.5875V29.1132C19.8346 29.0923 19.7547 29.077 19.674 29.0673C14.6342 28.8731 9.69737 29.5261 4.81814 30.6838C4.56626 30.7434 4.47641 30.8336 4.48441 31.0798C4.50208 31.6518 4.48925 32.2238 4.48925 32.8355C9.59013 31.8504 14.6728 31.1869 19.9131 31.5861L19.9129 31.5875ZM39.3511 27.5242H34.6261C35.0753 27.6557 35.4251 27.7873 35.7893 27.853C36.0476 27.8989 36.0974 28.009 36.0941 28.229C36.083 29.0288 36.0877 29.8302 36.0861 30.63V31.0659H39.3096V30.3657H47.8581C47.6961 31.0187 47.5324 31.6747 47.3575 32.3752H48.1453C48.9444 29.4405 50.7317 27.6329 54.1348 27.8087C55.4092 27.8619 56.6144 28.3766 57.5042 29.2478C58.4092 30.1226 58.9418 31.1703 59.0638 32.4043H59.7024C59.6655 32.1198 59.6478 31.8522 59.5916 31.5907C59.0493 29.0475 56.9796 27.2521 54.1188 27.0413C52.0282 26.8864 50.2615 27.5579 48.8352 29.0367C48.7229 29.1529 48.5336 29.266 48.378 29.266C45.4819 29.2813 42.5842 29.2798 39.6882 29.2813H39.3464V27.5227L39.3511 27.5242ZM37.068 33.7439C36.9715 33.7274 36.874 33.7166 36.776 33.7118C35.3352 33.7072 33.8944 33.7056 32.4536 33.6995C32.2498 33.6995 32.0893 33.698 32.0188 33.9534C31.6594 35.2395 30.9181 36.2855 29.7083 37.116H39.0335C37.7452 36.0592 37.3472 35.3682 37.0665 33.7439H37.068ZM21.5931 35.5975C21.2401 35.1005 21.0235 34.5087 20.7925 33.9413C20.7075 33.7318 20.648 33.6341 20.3962 33.6553C19.326 33.744 18.2542 33.8142 17.1824 33.8924C17.0027 33.9061 16.8407 33.9015 16.7829 34.1477C16.4973 35.3711 15.7641 36.3162 14.6538 37.1083H22.992C22.5283 36.6189 21.9876 36.1555 21.5913 35.5973L21.5931 35.5975ZM26.2073 35.2257C27.5006 35.7242 28.8435 35.1952 29.4516 33.8998C29.9683 32.7988 29.8158 31.7374 29.0103 30.8092C27.9963 29.6408 26.0565 29.7998 25.174 31.1089C24.8371 31.609 24.6382 32.1641 24.6542 32.7223C24.6638 33.8831 25.2896 34.8725 26.2073 35.2257ZM32.0188 6.99819C30.9101 5.25635 28.1472 4.54063 25.0182 4.73484C25.1849 4.95659 25.3167 5.1661 25.4835 5.34654C26.1334 6.04563 26.7286 6.80547 27.4634 7.41261C28.7422 8.47089 30.2584 8.76758 31.9078 8.34394C32.0023 8.31947 32.094 8.2797 32.2881 8.21244C30.4815 7.2245 28.7454 6.29471 26.8024 5.53312C28.8385 5.72426 29.6712 5.96132 32.0186 6.99666L32.0188 6.99819ZM11.6949 23.8981C13.0331 23.6733 14.3808 23.4975 15.7222 23.291C15.9564 23.2543 16.2982 23.3109 16.2468 22.9071C16.2003 22.5401 15.9725 22.3444 15.5713 22.3948C14.7418 22.4988 13.9123 22.6104 13.0908 22.7588C11.6789 23.0157 10.2734 23.3017 8.86461 23.5769C8.77534 23.596 8.68744 23.6205 8.60146 23.6503C7.98052 23.8415 7.91801 23.9424 8.02708 24.597C9.26251 24.3586 10.4739 24.103 11.6949 23.8965L11.6949 23.8981ZM11.013 26.2165C12.6095 25.9565 14.2124 25.7225 15.812 25.4751C16.2212 25.4124 16.4314 24.9719 16.1875 24.6599C16.1375 24.5972 15.9773 24.5774 15.8778 24.5926C13.853 24.9122 11.8298 25.2375 9.80811 25.5683C9.33158 25.6463 8.86628 25.787 8.38975 25.8573C8.03514 25.9093 7.88411 26.0546 7.94523 26.3972C7.96446 26.5042 7.94845 26.6158 7.94845 26.7719C9.01531 26.5777 10.0118 26.3788 11.013 26.2152L11.013 26.2165ZM10.7387 28.3178C12.4073 28.0807 14.0808 27.8729 15.7526 27.648C15.9676 27.6189 16.2083 27.6113 16.2583 27.3283C16.3401 26.868 16.1797 26.7013 15.6983 26.7775C13.2979 27.1568 10.8981 27.5386 8.49899 27.923C8.3323 27.949 8.1701 27.9979 7.98224 28.0423V28.7837C8.94013 28.6216 9.837 28.4488 10.7403 28.3204L10.7387 28.3178ZM26.3325 19.0092C26.7031 18.9709 26.8826 18.7003 26.8893 18.3837C26.9101 17.5227 26.9085 16.6602 26.8782 15.7992C26.8621 15.3496 26.4948 15.0577 26.0214 15.0361C25.7727 15.0255 25.524 15.0192 25.2753 15.0284C25.1839 15.0315 25.0491 15.0667 25.0186 15.1263C24.9833 15.1952 25.009 15.345 25.0667 15.3939C25.3379 15.6233 25.3315 15.92 25.3315 16.2228C25.3315 17.0104 25.3315 17.7965 25.3363 18.5841C25.3363 18.7186 25.3507 18.8517 25.3603 19.0153C25.7085 19.0153 26.023 19.0398 26.3327 19.0092H26.3325ZM49.0583 36.0286C48.9652 35.9338 48.8128 35.8375 48.6844 35.8344C47.9255 35.8145 47.1666 35.8176 46.4077 35.8283C46.2849 35.835 46.1689 35.8845 46.082 35.9675C45.7338 36.3314 45.4049 36.7107 45.0551 37.0992H50.0402C49.7097 36.7352 49.3936 36.3727 49.0567 36.0287L49.0583 36.0286ZM22.6583 32.6428C22.7016 33.9947 23.3289 35.0912 24.4825 35.894C22.947 33.6399 22.8781 31.4316 24.6159 29.2416C23.4156 30.0767 22.6102 31.1593 22.6583 32.6428ZM30.5507 30.0751C29.7388 28.7538 28.3766 28.0657 26.9952 28.3134C28.513 28.5871 29.665 29.3487 30.3052 30.6884C30.9245 31.9867 30.955 33.3187 30.302 34.6415C31.2887 33.4976 31.3914 31.4423 30.5507 30.0767V30.0751ZM51.7859 30.5736C50.8361 31.2313 50.2231 32.0861 50.1927 33.2392C50.1606 34.4932 50.674 35.5132 51.7458 36.2488C50.4108 34.3449 50.456 32.4623 51.7859 30.5736ZM54.1092 29.6332C56.054 30.095 57.1946 31.2771 57.5876 33.1352C57.6679 30.9743 56.1821 29.4771 54.1091 29.6332H54.1092ZM35.1234 9.25233C35.1298 8.93425 35.1234 8.61616 35.1234 8.26439C34.3982 8.58708 34.3292 8.77213 34.4752 9.87627C35.0191 9.81203 35.1138 9.72183 35.1218 9.25233H35.1234ZM39.5131 34.0512C39.4682 33.8004 39.3382 33.7821 39.0927 33.854C39.1954 34.7808 39.6158 35.5239 40.4324 36.0531C39.9591 35.4674 39.6435 34.7801 39.5132 34.0512H39.5131Z" fill="white"/>
<path d="M31.8055 40.1851H55.2019C55.8052 40.1851 56.0555 40.0368 56.0426 39.6896C56.0298 39.3562 55.8228 39.2369 55.2019 39.2369C46.4591 39.2323 37.7164 39.2298 28.9736 39.2293C22.1576 39.2278 15.3418 39.2257 8.52617 39.2232C8.36947 39.22 8.21276 39.2292 8.05765 39.2507C7.75759 39.2997 7.58273 39.4694 7.61963 39.7707C7.6533 40.0506 7.84266 40.176 8.13466 40.176C9.2883 40.179 10.4419 40.1897 11.5955 40.1913H31.8073V40.1852L31.8055 40.1851Z" fill="white"/>
<path d="M31.8391 42.3843H47.6849C48.5384 42.3843 48.8096 42.2635 48.8128 41.8857C48.8177 41.5172 48.5722 41.4038 47.7137 41.4038C42.5361 41.4038 37.3596 41.4063 32.1841 41.4115C26.9022 41.4115 21.6202 41.4064 16.3383 41.3962C16.0896 41.3962 15.8393 41.3885 15.5906 41.3992C15.1766 41.4161 14.9312 41.6087 14.9312 41.9024C14.9312 42.196 15.1654 42.3719 15.6002 42.3733C18.2476 42.381 20.895 42.3871 23.5424 42.3917C26.3085 42.3948 29.074 42.3948 31.8391 42.3917V42.3826V42.3843Z" fill="white"/>
<path d="M21.731 43.6322C28.5228 46.1433 35.3129 46.1295 42.1012 43.7362C42.1044 43.7025 42.1061 43.6689 42.1092 43.6352H41.8301C41.5284 43.6352 41.2268 43.649 40.9251 43.6352C38.7687 43.5267 36.6476 43.7897 34.5185 44.0772C31.9256 44.4274 29.3424 44.2179 26.7833 43.7118C26.5144 43.6608 26.2407 43.6357 25.9665 43.6368C24.5545 43.6292 23.1426 43.6338 21.7307 43.6338L21.731 43.6322Z" fill="white"/>
<path d="M42.3966 4.9305C38.4303 3.26074 34.3517 2.66101 30.0854 3.09995C30.1721 3.13819 30.2571 3.17642 30.3438 3.21466C30.793 3.41502 31.284 3.55891 31.6819 3.82944C32.1793 4.16744 32.7023 4.26224 33.2864 4.2849C36.0115 4.3893 38.6963 4.94832 41.2189 5.93656C41.498 6.04666 41.6649 6.02219 41.819 5.76835C41.9811 5.4992 42.1768 5.24991 42.3998 4.93029L42.3966 4.9305Z" fill="white"/>
<path d="M23.1266 5.97032C22.8555 5.62777 22.6116 5.33568 22.3886 5.0283C22.2538 4.84325 22.1318 4.80808 21.904 4.89833C19.8984 5.69047 17.9987 6.66464 16.2932 7.94901C15.5153 8.53624 14.7994 9.19995 14.0581 9.83157C13.9631 9.92343 13.8732 10.0199 13.7886 10.1206C14.6598 9.9707 15.4797 9.83157 16.2996 9.68471C16.3885 9.66826 16.4718 9.63095 16.5418 9.57614C18.5041 8.02389 20.6621 6.79567 23.1266 5.96857L23.1266 5.97032Z" fill="white"/>
<path d="M45.7433 25.0727C45.8749 24.4075 46.3657 24.1047 47.0124 23.8705C46.3033 23.6901 45.8701 23.3016 45.7417 22.6119C45.5427 23.2282 45.1705 23.664 44.4597 23.8644C45.1401 24.0757 45.5604 24.4565 45.7433 25.0727Z" fill="white"/>
<path d="M52.3716 32.1426C52.3379 32.4653 52.4519 32.7436 52.792 32.8017C53.0277 32.8291 53.2658 32.773 53.461 32.6442C53.7 32.476 53.676 32.0676 53.4658 31.8703C53.1995 31.6211 52.9139 31.6302 52.6315 31.8597C52.5449 31.9545 52.4598 32.0494 52.3732 32.1427L52.3716 32.1426Z" fill="white"/>
<path d="M21.0812 13.0174C21.0812 12.4638 20.7635 12.216 20.2067 12.2986C19.2103 12.4469 18.2172 12.6106 17.2256 12.7819C15.8217 13.0235 14.4226 13.2956 13.0171 13.5221C12.1202 13.6658 11.61 14.1307 11.3902 14.9718C10.9874 16.5103 10.5462 18.0383 10.1066 19.5673C10.0168 19.8778 9.85789 20.1699 9.74237 20.4742C9.68125 20.6363 9.60902 20.806 9.60279 20.9743C9.59479 21.2006 9.68142 21.3352 9.99108 21.2755C12.3785 20.82 14.7692 20.3809 17.1583 19.9389C17.492 19.8777 17.8257 19.8043 18.1643 19.7722C19.0483 19.6866 19.5168 19.1804 19.7238 18.4066C20.019 17.3055 20.3017 16.1998 20.5854 15.0957C20.733 14.5252 20.8744 13.9533 21.0138 13.3813C21.0491 13.2361 21.0684 13.0862 21.0812 13.0143L21.0812 13.0174Z" fill="white"/>
<path d="M19.8213 24.6904C19.8342 24.2056 19.6785 23.8845 19.287 23.6918C18.9597 23.5312 18.6453 23.5817 18.3741 23.7988C17.9796 24.1154 17.8495 24.5375 17.9505 25.01C18.0436 25.4473 18.4046 25.718 18.8378 25.715C19.2614 25.7119 19.6641 25.3877 19.7828 24.9458C19.8025 24.8612 19.8154 24.7753 19.8213 24.6889V24.6904Z" fill="white"/>
<path d="M30.7383 22.6244C30.841 22.502 31.0431 22.3568 31.0929 22.1733C31.11 22.1148 31.1133 22.0535 31.1026 21.9937C31.0919 21.9339 31.0674 21.8771 31.0309 21.8274C30.9944 21.7777 30.9468 21.7363 30.8915 21.7063C30.8362 21.6762 30.7746 21.6582 30.7112 21.6535C30.0479 21.5827 29.381 21.547 28.7136 21.5465C28.5772 21.5465 28.3302 21.8157 28.3365 21.9518C28.3429 22.0955 28.5692 22.296 28.7408 22.3494C28.9654 22.4197 29.2334 22.3586 29.4821 22.3785C29.8078 22.4045 30.1672 22.2928 30.4384 22.5804C30.472 22.6155 30.5635 22.6002 30.7384 22.6217L30.7383 22.6244Z" fill="white"/>
<path d="M6.68584 26.582C6.65055 26.4306 6.65217 26.2654 6.57515 26.1462C6.49653 26.0223 6.34734 25.8724 6.21737 25.8617C6.06495 25.8495 5.84192 25.9351 5.75368 26.0498C5.63274 26.1993 5.56243 26.3803 5.55211 26.5688C5.54178 26.7573 5.59194 26.9444 5.69589 27.105C5.77924 27.2411 6.00072 27.3879 6.14675 27.3772C6.29594 27.3666 6.4628 27.1891 6.55909 27.0454C6.64572 26.9183 6.64572 26.7395 6.68423 26.579L6.68584 26.582Z" fill="white"/>
<path d="M36.9749 29.26C36.986 29.5827 37.3102 29.8809 37.6455 29.8763C38.0129 29.8702 38.2889 29.5705 38.2745 29.1958C38.2725 29.1175 38.2541 29.0405 38.2203 28.9692C38.1865 28.8979 38.138 28.8338 38.0776 28.7807C38.0173 28.7276 37.9464 28.6867 37.8691 28.6602C37.7919 28.6338 37.7098 28.6224 37.6279 28.6268C37.2909 28.6374 36.9666 28.9541 36.9765 29.2615L36.9749 29.26Z" fill="white"/>
<path d="M27.0721 34.8769C28.0749 34.9075 28.951 34.1765 29.1563 33.1458C29.3489 32.1823 28.7229 31.095 27.8631 30.8044C28.1326 31.1378 28.441 31.5141 28.7744 31.927C28.0219 32.0921 27.7297 32.3765 27.8342 32.7635C27.932 33.1229 28.3187 33.3018 28.7535 33.1886C28.7664 33.9593 27.9096 34.8188 27.072 34.8784L27.0721 34.8769Z" fill="white"/>
<path d="M25.8237 33.3431C25.4258 33.3462 25.1178 33.6138 25.1194 33.9548C25.121 34.2667 25.5109 34.6261 25.843 34.6231C26.0213 34.6234 26.1927 34.5571 26.3204 34.4385C26.4481 34.3199 26.5221 34.1584 26.5265 33.9885C26.5329 33.6092 26.2393 33.3401 25.8237 33.3431Z" fill="white"/>
<path d="M25.8529 30.855C25.4823 30.8749 25.1662 31.1731 25.1742 31.4959C25.1838 31.8553 25.5128 32.1336 25.9091 32.1153C26.0917 32.1055 26.2631 32.0278 26.3861 31.8987C26.5092 31.7697 26.5741 31.5998 26.5669 31.4255C26.5508 31.0723 26.2524 30.8337 25.8513 30.8551L25.8529 30.855Z" fill="white"/>
<path d="M54.8489 31.7786C55.0911 32.0615 55.3109 32.3185 55.5452 32.5922C54.9499 32.7635 54.6627 33.0403 54.7093 33.3614C54.7478 33.6306 55.1265 33.8706 55.5516 33.8936C55.611 34.49 55.1826 34.9871 54.3162 35.3266C55.0496 35.3755 55.7682 34.7821 55.9639 33.9654C56.1789 33.0662 55.7024 32.1043 54.8488 31.7801L54.8489 31.7786Z" fill="white"/>
<path d="M52.2672 34.5971C52.3458 34.6751 52.4324 34.7486 52.5031 34.8327C52.7261 35.0987 52.9924 35.1462 53.2941 34.9718C53.5572 34.8204 53.6711 34.588 53.5781 34.3051C53.4786 34.0038 53.2299 33.8799 52.9074 33.9136C52.5865 33.9472 52.3314 34.0711 52.2977 34.4243C52.2912 34.4855 52.2849 34.5467 52.2785 34.6063L52.2656 34.5941L52.2672 34.5971Z" fill="white"/>
<path d="M54.1557 9.90373C54.1797 9.57649 54.1797 9.28287 54.2279 8.99688C54.3338 8.36224 54.4573 7.72909 54.5857 7.09753C54.6097 6.97979 54.5873 6.93086 54.4766 6.88648C54.2787 6.80299 54.0652 6.75834 53.8488 6.75518C53.6324 6.75202 53.4175 6.79043 53.2171 6.8681C52.8272 7.01639 52.4453 7.18772 52.0715 7.37123C51.2676 7.76272 50.4125 7.99363 49.5332 8.16035C48.7069 8.31632 47.9079 8.55184 47.2115 9.01833C46.8698 9.2477 46.5569 9.51992 46.2424 9.78452C46.0306 9.96194 45.9055 9.9434 45.8364 9.68665C45.4834 8.34545 45.5059 7.02418 46.1092 5.74723C46.982 3.89983 48.9475 2.66726 50.9916 2.69782C52.2126 2.7162 53.2539 3.13369 54.0305 4.0558C54.5576 4.66738 54.8332 5.44089 54.8058 6.23193C54.8058 6.261 54.809 6.29018 54.8138 6.36497C54.8956 6.18453 54.9582 6.04535 55.0239 5.90616C55.0896 5.76698 55.1555 5.62632 55.2277 5.48867C55.608 4.77602 56.0508 4.10161 56.6108 3.50214C56.8163 3.28193 57.0584 3.23146 57.3135 3.33696C57.4679 3.39877 57.5988 3.50413 57.6886 3.63891C57.7783 3.77368 57.8227 3.93141 57.8157 4.09091C57.7965 4.39809 57.6424 4.65829 57.3616 4.67052C56.8433 4.69346 56.6059 5.04062 56.3508 5.36786C55.8871 5.96103 55.5759 6.62951 55.3464 7.33299C55.3423 7.35416 55.3407 7.37572 55.3416 7.39723C55.5967 7.37737 55.8472 7.36053 56.0957 7.33453C56.131 7.33146 56.1727 7.28686 56.1902 7.25196C56.7646 6.08973 57.7577 5.47495 59.0558 5.28376C60.3089 5.09872 61.4657 5.39233 62.5487 5.98878C63.3063 6.41402 63.9836 6.95731 64.5527 7.59605C64.8174 7.88506 64.811 7.95698 64.4612 8.14049C63.6833 8.54882 62.9161 8.97855 62.1171 9.34271C61.1127 9.79998 60.0441 9.98657 58.9338 9.79998C57.7257 9.59661 56.7052 9.09194 56.0313 8.06423C56.0136 8.04314 55.9915 8.02585 55.9663 8.01346C55.9412 8.00108 55.9136 7.99389 55.8853 7.99236C55.6831 7.9939 55.4809 8.01529 55.2788 8.0199C55.1746 8.02297 55.1633 8.09023 55.1569 8.15908C55.0991 8.69585 55.0446 9.23113 54.9884 9.76789C54.9836 9.8199 54.9852 9.87339 54.9836 9.9407C55.0654 9.91623 55.1376 9.89484 55.2114 9.87339C55.8726 9.67918 56.5206 9.76789 57.1528 9.98042C58.6193 10.4775 59.5852 11.4898 60.243 12.7958C60.8415 13.9856 61.0487 15.2488 60.8992 16.5548C60.7099 18.2156 59.9879 19.6593 58.8327 20.9072C57.8251 21.996 56.5896 22.7576 55.1232 23.1552C53.5925 23.5697 52.0602 23.559 50.56 23.0344C48.5352 22.3247 47.0447 21.0372 46.1526 19.1546C45.2669 17.2843 45.1273 15.3513 45.8221 13.4061C46.4976 11.5174 47.749 10.0829 49.7145 9.28769C50.5986 8.92983 51.5195 8.80902 52.4726 8.98184C53.1288 9.10111 53.7049 9.355 54.154 9.904L54.1557 9.90373ZM54.7718 10.6974C54.9774 10.8702 55.1905 11.0155 55.3574 11.199C55.8644 11.7526 56.1114 12.4224 56.2446 13.1336C56.572 14.903 56.1821 16.5469 55.2675 18.0915C54.4709 19.4573 53.3111 20.5991 51.9047 21.4023C51.2163 21.7968 50.467 22.0415 49.6841 22.1959C49.6054 22.2112 49.4691 22.2877 49.4755 22.3152C49.5011 22.4423 49.631 22.4284 49.729 22.4162C50.2215 22.355 50.7253 22.3305 51.2019 22.2096C52.84 21.7936 54.2024 20.9357 55.3077 19.7214C56.97 17.8955 57.6984 15.7988 57.2395 13.381C57.1031 12.6577 56.848 11.9741 56.3972 11.37C56.1916 11.0932 55.9608 10.8378 55.627 10.6956C55.3398 10.5748 55.051 10.561 54.7734 10.6987L54.7718 10.6974ZM53.3133 10.1392C53.2844 10.1163 53.2652 10.0964 53.2427 10.0809C52.8608 9.81942 52.418 9.73839 51.9639 9.71551C50.7541 9.65434 49.6791 10.0168 48.7325 10.7157C47.412 11.6899 46.629 12.9775 46.3563 14.5435C46.3001 14.8677 46.3017 15.2041 46.2889 15.5344C46.2841 15.6583 46.35 15.7577 46.5007 15.7638C46.6243 15.7699 46.7028 15.6858 46.7125 15.5374C46.7799 14.5052 47.1297 13.5616 47.7057 12.693C48.4002 11.647 49.3246 10.8548 50.5584 10.422C50.753 10.3529 50.9518 10.2952 51.1537 10.2492C51.2202 10.2328 51.2909 10.2412 51.3511 10.2728C51.4113 10.3043 51.4567 10.3566 51.4778 10.4189C51.5195 10.5306 51.457 10.6529 51.3173 10.7217C51.2707 10.7431 51.2224 10.761 51.1729 10.7753C50.2975 11.0429 49.5086 11.5199 48.8817 12.1608C47.773 13.3032 47.25 14.6581 47.2916 16.2103C47.3196 17.2651 47.6265 18.2962 48.1837 19.2079C48.2703 19.3359 48.3646 19.459 48.4661 19.5765C48.4838 19.5659 48.503 19.5553 48.5207 19.5444C48.4934 19.4679 48.4693 19.3914 48.4405 19.3166C47.9303 18.0535 47.7602 16.7533 48.0377 15.4216C48.4405 13.4855 49.5748 12.0709 51.4472 11.2206C51.7906 11.0646 52.1773 10.9989 52.5415 10.8872C52.6233 10.8628 52.7629 10.866 52.734 10.7465C52.7212 10.6945 52.5961 10.6502 52.5142 10.6318C52.4147 10.6089 52.3072 10.6212 52.2045 10.6119C52.1434 10.6109 52.0851 10.5874 52.0418 10.5464C51.9984 10.5053 51.9734 10.4499 51.972 10.3916C51.965 10.3312 51.9821 10.2705 52.0198 10.2214C52.0575 10.1724 52.1131 10.1386 52.1757 10.1268C52.2564 10.1071 52.3396 10.0989 52.4228 10.1023C52.7148 10.1115 53.0069 10.1268 53.3149 10.1406L53.3133 10.1392ZM51.2804 4.5359C50.6852 3.79878 48.7165 3.75292 48.2528 4.45942C49.2541 4.73323 50.255 4.54209 51.2805 4.53595L51.2804 4.5359ZM58.4572 16.0988C58.5952 14.9381 58.4717 13.7942 58.008 12.6916C57.9903 12.6503 57.9695 12.5983 57.9342 12.5815C57.8764 12.5539 57.7946 12.5279 57.7433 12.5478C57.7032 12.5631 57.6727 12.6503 57.6743 12.7038C57.6816 12.778 57.7023 12.8504 57.7354 12.9179C57.9995 13.6324 58.1304 14.3855 58.1221 15.143C58.1188 15.4382 58.0884 15.7349 58.0659 16.03C58.0548 16.1722 58.1141 16.2823 58.2232 16.3007C58.3323 16.3191 58.435 16.238 58.4607 16.0988H58.4572ZM49.4192 7.40788C49.4321 7.41704 49.4433 7.42472 49.4561 7.43388C49.5364 7.36048 49.6342 7.29777 49.692 7.2106C49.8316 7.00898 49.9544 6.79731 50.0595 6.5775C50.3066 6.03306 50.5103 5.46876 50.9916 5.05751C50.9964 5.0529 50.9948 5.03913 50.9964 5.01927C50.629 4.96573 50.3226 5.08352 50.0626 5.31903C49.716 5.63246 49.5604 6.04079 49.4964 6.47814C49.4514 6.78532 49.4434 7.09753 49.4177 7.4064L49.4192 7.40788ZM48.6203 15.4812C48.6075 15.6831 48.5786 16.0868 48.5545 16.4905C48.5478 16.5346 48.5539 16.5795 48.5721 16.6205C48.6067 16.665 48.6472 16.7051 48.6925 16.7398C48.7356 16.7031 48.7743 16.6621 48.808 16.6174C48.8257 16.5914 48.8161 16.5501 48.8191 16.5149C48.8464 16.2395 48.8528 15.9613 48.9041 15.6891C49.0779 14.7639 49.5009 13.8976 50.1316 13.175C50.2074 13.101 50.2787 13.0229 50.3449 12.941C50.3569 12.916 50.3622 12.8886 50.3605 12.8611C50.3589 12.8337 50.3502 12.807 50.3353 12.7835C50.3137 12.7689 50.2885 12.7597 50.2622 12.7568C50.2358 12.7538 50.2091 12.7572 50.1845 12.7667C50.1084 12.8081 50.0396 12.8607 49.9808 12.9226C49.3117 13.591 48.8945 14.3862 48.6202 15.4781L48.6203 15.4812ZM52.7759 5.06816V5.01159C52.6602 4.97947 52.5422 4.95545 52.4229 4.93973C51.9977 4.91526 51.6783 5.10793 51.4121 5.40462C50.9869 5.88021 50.9195 6.47666 50.7735 7.0899C50.835 7.05356 50.893 7.0121 50.9468 6.96602C51.1135 6.78559 51.2869 6.60663 51.4377 6.41396C51.5902 6.21975 51.7137 6.00716 51.8581 5.80834C52.0923 5.49124 52.4077 5.23645 52.7743 5.06816H52.7759ZM49.3295 5.15374C48.4759 4.90143 47.1394 5.26231 46.8024 6.26402C46.9773 6.27324 49.1514 5.322 49.3295 5.15374ZM58.2455 17.0073C58.2615 16.9592 58.2572 16.9071 58.2335 16.862C58.2099 16.8169 58.1687 16.7823 58.1188 16.7657C58 16.7198 57.9132 16.7718 57.8492 16.9171C57.8324 16.9534 57.818 16.9907 57.806 17.0287C57.5812 17.7354 57.2418 18.4041 56.8 19.0107C56.7596 19.0621 56.7271 19.1187 56.7037 19.1789C56.6928 19.207 56.6904 19.2375 56.697 19.2668C56.7036 19.2961 56.7188 19.323 56.7409 19.3443C56.763 19.3657 56.791 19.3806 56.8216 19.3873C56.8523 19.394 56.8843 19.3923 56.9139 19.3823C56.9824 19.3599 57.0422 19.3183 57.0856 19.263C57.5912 18.5779 57.9953 17.8453 58.2472 17.0073L58.2455 17.0073ZM60.7068 8.96018C60.2559 8.73244 59.9029 8.39434 59.5355 8.07472C59.2897 7.85177 58.989 7.69136 58.6611 7.60829C58.4497 7.54891 58.2255 7.54363 58.0113 7.59298C58.4717 7.7918 58.8135 8.12058 59.1633 8.44783C59.3369 8.60338 59.5324 8.73514 59.7441 8.83932C60.0384 8.99127 60.3812 9.03429 60.7068 8.96012V8.96018ZM56.532 19.8914C56.4967 19.8287 56.4758 19.7446 56.4213 19.7125C56.3763 19.6865 56.2849 19.7049 56.2271 19.7323C56.1705 19.7669 56.1219 19.8122 56.0843 19.8654C55.4377 20.6068 54.6853 21.228 53.7899 21.6852C53.7578 21.7021 53.7145 21.7173 53.7017 21.7435C53.6776 21.7924 53.6455 21.8643 53.6664 21.901C53.6841 21.9346 53.7707 21.9469 53.8253 21.9453C53.8764 21.9364 53.9247 21.9165 53.9665 21.8871C54.8807 21.4346 55.6985 20.8236 56.378 20.0856C56.428 20.0305 56.4711 19.9693 56.532 19.8914H56.532ZM53.3615 4.61396C52.9908 3.98234 51.7458 3.38902 51.0496 3.5755C51.7121 4.1246 52.4387 4.54665 53.3615 4.61396ZM59.6174 7.47832C60.0217 7.74138 60.426 8.01206 60.8398 8.272C60.9702 8.35199 61.1103 8.41668 61.257 8.46467C61.5169 8.5547 61.7849 8.5564 62.0833 8.50291C61.6646 8.22915 61.2875 7.95693 60.8848 7.72755C60.6617 7.60045 60.4018 7.5272 60.1483 7.45994C59.9739 7.41123 59.7876 7.41767 59.6174 7.47832ZM52.2239 11.6012C52.1545 11.5851 52.0823 11.5824 52.0117 11.5933C51.9411 11.6042 51.8736 11.6285 51.813 11.6647C51.7524 11.7009 51.7001 11.7483 51.659 11.8041C51.618 11.8599 51.5891 11.923 51.5741 11.9897C51.5595 12.0548 51.5584 12.1221 51.5711 12.1877C51.5837 12.2532 51.6098 12.3157 51.6477 12.3717C51.6857 12.4277 51.7349 12.4759 51.7925 12.5138C51.85 12.5516 51.9149 12.5782 51.9832 12.5922C52.0516 12.6062 52.1222 12.6072 52.191 12.5951C52.2597 12.5831 52.3253 12.5582 52.384 12.522C52.4427 12.4858 52.4934 12.4389 52.5331 12.3841C52.5728 12.3292 52.6008 12.2674 52.6154 12.2023C52.647 12.0731 52.6235 11.9372 52.5501 11.8245C52.4767 11.7119 52.3594 11.6315 52.2239 11.6012ZM60.4982 6.01479C59.6238 6.03465 59.144 6.6311 58.5744 7.11585C59.1665 7.27643 60.0971 6.74258 60.4982 6.01479ZM58.783 8.98925C58.5584 8.7675 58.3627 8.54268 58.1316 8.35462C57.9211 8.18137 57.6901 8.03208 57.4433 7.90974C57.2266 7.80271 56.978 7.78433 56.7053 7.82717C56.8432 7.93882 56.9508 8.03976 57.0711 8.12376C57.4224 8.3669 57.769 8.6163 58.1348 8.8364C58.3283 8.95043 58.5544 9.00391 58.7814 8.98936L58.783 8.98925ZM48.1197 7.82241C48.3256 7.68343 48.481 7.48672 48.5642 7.25964C48.7198 6.81768 48.8482 6.36502 48.9862 5.91999C48.7728 5.96431 48.4952 6.19374 48.3379 6.45066C48.0812 6.87117 48.1197 7.33151 48.1197 7.82241ZM56.84 7.33305C57.5427 7.39422 58.5231 6.69687 58.6691 6.03163C57.9375 6.31889 57.3775 6.80084 56.84 7.33305ZM60.3474 7.05013C61.0726 7.22448 61.6342 6.92164 62.1942 6.5516C61.6197 6.28854 60.7581 6.52099 60.3474 7.05013ZM61.5299 7.52116C62.1219 7.71537 62.6819 8.03192 63.3494 7.86679C62.8568 7.3636 62 7.12512 61.5299 7.52116ZM52.3796 6.42767C52.9331 6.18935 53.315 5.69517 53.941 5.53761C53.75 5.37703 53.5671 5.32809 53.365 5.38772C52.8272 5.54682 52.5288 5.91999 52.3796 6.42767ZM47.5676 6.70752C47.006 6.86047 46.5022 7.64801 46.544 8.00894C47.0528 7.84688 47.5341 7.23512 47.5678 6.70757L47.5676 6.70752ZM59.3237 17.4951H59.3253C59.3414 17.4278 59.359 17.3605 59.3718 17.2932C59.378 17.2715 59.379 17.2488 59.3747 17.2267C59.3705 17.2045 59.3611 17.1836 59.3472 17.1654C59.3334 17.1472 59.3154 17.1322 59.2947 17.1215C59.2739 17.1108 59.2509 17.1047 59.2274 17.1036C59.1567 17.0989 59.0412 17.1479 59.0172 17.2014C58.9588 17.3384 58.9247 17.4836 58.9161 17.6312C58.9129 17.6908 58.9915 17.7841 59.0573 17.8116C59.1504 17.8498 59.2402 17.7948 59.2755 17.6984C59.2957 17.6321 59.3117 17.5647 59.3236 17.4965L59.3237 17.4951ZM59.7633 15.4459C59.7699 15.4182 59.7707 15.3897 59.7656 15.3618C59.7605 15.3339 59.7496 15.3072 59.7337 15.2833C59.7177 15.2594 59.6969 15.2388 59.6726 15.2226C59.6482 15.2064 59.6207 15.195 59.5917 15.189C59.5641 15.1825 59.5355 15.1815 59.5075 15.1861C59.4795 15.1906 59.4528 15.2006 59.4291 15.2153C59.4053 15.2301 59.385 15.2493 59.3694 15.2719C59.3537 15.2945 59.3431 15.3198 59.3382 15.3465C59.3261 15.4021 59.3371 15.4601 59.3688 15.5082C59.4005 15.5564 59.4504 15.591 59.5083 15.6049C59.536 15.6107 59.5647 15.6111 59.5926 15.6061C59.6205 15.601 59.647 15.5908 59.6707 15.5758C59.6943 15.5608 59.7146 15.5414 59.7302 15.5189C59.7459 15.4963 59.7566 15.4709 59.7618 15.4443L59.7633 15.4459Z" fill="white"/>
<path d="M43.2982 20.2892C43.3897 19.8274 43.7298 19.6163 44.1807 19.4542C43.6881 19.3288 43.3881 19.0597 43.2982 18.581C43.1602 19.0092 42.9019 19.3119 42.4077 19.4511C42.881 19.598 43.1715 19.8626 43.2998 20.2907L43.2982 20.2892Z" fill="white"/>
<path d="M41.7627 24.2057C41.9263 23.3799 42.536 23.0035 43.3399 22.7131C42.459 22.4883 41.9215 22.0066 41.7627 21.1517C41.5172 21.9179 41.0535 22.4578 40.1694 22.707C41.015 22.9701 41.5363 23.4426 41.7627 24.2072V24.2057Z" fill="white"/>
</svg>
