<svg width="23" height="22" viewBox="0 0 23 22" fill="none" xmlns="http://www.w3.org/2000/svg">
<path fill-rule="evenodd" clip-rule="evenodd" d="M7.19972 20.8552C8.51756 21.431 9.97251 21.75 11.5 21.75C17.4371 21.75 22.25 16.9371 22.25 11C22.25 5.06294 17.4371 0.25 11.5 0.25C5.56294 0.25 0.75 5.06294 0.75 11C0.75 13.4197 1.55032 15.6546 2.90038 17.4515C3.14919 17.7826 3.61934 17.8494 3.95051 17.6006C4.28167 17.3518 4.34843 16.8816 4.09962 16.5505C2.93804 15.0044 2.25 13.0836 2.25 11C2.25 5.89137 6.39137 1.75 11.5 1.75C16.6086 1.75 20.75 5.89137 20.75 11C20.75 16.1086 16.6086 20.25 11.5 20.25C10.1831 20.25 8.93229 19.9752 7.80028 19.4806C7.42071 19.3148 6.97857 19.4881 6.81274 19.8676C6.6469 20.2472 6.82016 20.6893 7.19972 20.8552Z" fill="black"/>
<path fill-rule="evenodd" clip-rule="evenodd" d="M14.2626 11.1768C14.3602 11.0791 14.3602 10.9209 14.2626 10.8232L11.9697 8.53033C11.6768 8.23744 11.6768 7.76256 11.9697 7.46967C12.2626 7.17678 12.7375 7.17678 13.0304 7.46967L15.3233 9.76256C16.0067 10.446 16.0067 11.554 15.3233 12.2374L13.0304 14.5303C12.7375 14.8232 12.2626 14.8232 11.9697 14.5303C11.6768 14.2374 11.6768 13.7626 11.9697 13.4697L14.2626 11.1768Z" fill="black"/>
<path fill-rule="evenodd" clip-rule="evenodd" d="M6.75 11C6.75 11.4142 7.08579 11.75 7.5 11.75L14.5 11.75C14.9142 11.75 15.25 11.4142 15.25 11C15.25 10.5858 14.9142 10.25 14.5 10.25L7.5 10.25C7.08579 10.25 6.75 10.5858 6.75 11Z" fill="black"/>
</svg>
