<svg width="12" height="12" viewBox="0 0 12 12" fill="none" xmlns="http://www.w3.org/2000/svg">
<path fill-rule="evenodd" clip-rule="evenodd" d="M11.7728 1.28033C12.0657 0.987437 12.0657 0.512563 11.7728 0.21967C11.4799 -0.0732233 11.005 -0.0732233 10.7121 0.21967L7.43938 3.49244C7.14649 3.78533 7.14649 4.26021 7.43938 4.5531C7.73227 4.84599 8.20715 4.84599 8.50004 4.5531L11.7728 1.28033ZM4.80314 8.25C5.09603 7.95711 5.09603 7.48223 4.80314 7.18934C4.51025 6.89645 4.03537 6.89645 3.74248 7.18934L0.469557 10.4623C0.176665 10.7552 0.176664 11.23 0.469557 11.5229C0.762451 11.8158 1.23732 11.8158 1.53022 11.5229L4.80314 8.25ZM10.7121 11.523C11.005 11.8159 11.4799 11.8159 11.7728 11.523C12.0657 11.2301 12.0657 10.7552 11.7728 10.4624L1.53021 0.219764C1.23731 -0.0731293 0.762441 -0.0731295 0.469548 0.219764C0.176655 0.512657 0.176655 0.987531 0.469548 1.28042L10.7121 11.523Z" fill="white"/>
</svg>
