<svg width="12" height="12" viewBox="0 0 12 12" fill="none" xmlns="http://www.w3.org/2000/svg">
<path fill-rule="evenodd" clip-rule="evenodd" d="M11.7728 1.53033C12.0657 1.23744 12.0657 0.762563 11.7728 0.46967C11.4799 0.176777 11.005 0.176777 10.7121 0.46967L7.43937 3.74244C7.14648 4.03533 7.14648 4.51021 7.43937 4.8031C7.73226 5.09599 8.20714 5.09599 8.50003 4.8031L11.7728 1.53033ZM4.80313 8.5C5.09602 8.20711 5.09602 7.73223 4.80313 7.43934C4.51024 7.14645 4.03536 7.14645 3.74247 7.43934L0.469549 10.7123C0.176656 11.0052 0.176656 11.48 0.469549 11.7729C0.762442 12.0658 1.23732 12.0658 1.53021 11.7729L4.80313 8.5ZM10.7121 11.773C11.005 12.0659 11.4799 12.0659 11.7728 11.773C12.0657 11.4801 12.0657 11.0052 11.7728 10.7124L1.5302 0.469764C1.23731 0.176871 0.762433 0.17687 0.469539 0.469764C0.176646 0.762657 0.176647 1.23753 0.469539 1.53042L10.7121 11.773Z" fill="black"/>
</svg>
