<svg width="22" height="18" viewBox="0 0 22 18" fill="none" xmlns="http://www.w3.org/2000/svg">
<path fill-rule="evenodd" clip-rule="evenodd" d="M0.25 6C0.25 2.82436 2.82436 0.25 6 0.25H16C19.1756 0.25 21.75 2.82436 21.75 6V12C21.75 15.1756 19.1756 17.75 16 17.75H6C2.82436 17.75 0.25 15.1756 0.25 12V11C0.25 10.5858 0.585786 10.25 1 10.25C1.41421 10.25 1.75 10.5858 1.75 11V12C1.75 14.3472 3.65279 16.25 6 16.25H16C18.3472 16.25 20.25 14.3472 20.25 12V6C20.25 3.65279 18.3472 1.75 16 1.75H6C3.65279 1.75 1.75 3.65279 1.75 6V7C1.75 7.41421 1.41421 7.75 1 7.75C0.585786 7.75 0.25 7.41421 0.25 7V6Z" fill="black"/>
<path fill-rule="evenodd" clip-rule="evenodd" d="M4.40004 5.55004C4.64857 5.21867 5.11867 5.15152 5.45004 5.40004L10.25 9.00004C10.6945 9.33338 11.3056 9.33338 11.75 9.00004L16.55 5.40004C16.8814 5.15152 17.3515 5.21867 17.6 5.55004C17.8486 5.88142 17.7814 6.35152 17.45 6.60004L12.65 10.2C11.6723 10.9334 10.3278 10.9334 9.35004 10.2L4.55004 6.60004C4.21867 6.35152 4.15152 5.88142 4.40004 5.55004Z" fill="black"/>
</svg>
