<svg width="10" height="18" viewBox="0 0 10 18" fill="none" xmlns="http://www.w3.org/2000/svg">
<path d="M9.49884 8.36031L9.28296 10.089C9.24644 10.3778 9.00122 10.595 8.71034 10.595H5.90269V17.8225C5.6066 17.8492 5.30659 17.8629 5.00333 17.8629C4.32506 17.8629 3.66309 17.7952 3.0233 17.6664V10.595H0.863912C0.665648 10.595 0.503906 10.433 0.503906 10.2347V8.07155C0.503906 7.87318 0.665648 7.71124 0.863912 7.71124H3.0233V4.4672C3.0233 2.47642 4.63484 0.862854 6.62335 0.862854H9.14274C9.34101 0.862854 9.50275 1.0248 9.50275 1.22316V3.38629C9.50275 3.58465 9.34101 3.74659 9.14274 3.74659H7.34271C6.5477 3.74659 5.90334 4.39176 5.90334 5.18846V7.71189H8.92687C9.27383 7.71189 9.54188 8.01626 9.49949 8.36096L9.49884 8.36031Z" fill="white"/>
</svg>
