<svg width="38" height="30" viewBox="0 0 38 30" fill="none" xmlns="http://www.w3.org/2000/svg">
<path fill-rule="evenodd" clip-rule="evenodd" d="M19.3761 3.40449C21.9671 3.40449 24.0676 5.5049 24.0676 8.0959C24.0676 10.6869 21.9671 12.7873 19.3761 12.7873C16.7852 12.7873 14.6847 10.6869 14.6847 8.0959C14.6847 7.36377 14.0912 6.77027 13.3591 6.77027C12.627 6.77027 12.0335 7.36377 12.0335 8.0959C12.0335 12.1511 15.3209 15.4386 19.3761 15.4386C23.4314 15.4386 26.7188 12.1511 26.7188 8.0959C26.7188 4.04066 23.4314 0.753235 19.3761 0.753235C18.644 0.753235 18.0505 1.34674 18.0505 2.07886C18.0505 2.81099 18.644 3.40449 19.3761 3.40449Z" fill="black"/>
<path fill-rule="evenodd" clip-rule="evenodd" d="M27.4274 21.4048C22.2208 19.5453 16.531 19.5453 11.3243 21.4048C10.6331 21.6517 10.1717 22.3064 10.1717 23.0404V25.0193C10.1717 25.9988 11.0392 26.7512 12.0089 26.6127L12.5985 26.5285C17.0939 25.8862 21.6578 25.8862 26.1533 26.5285L26.7429 26.6127C27.7125 26.7512 28.5801 25.9988 28.5801 25.0193V23.0404C28.5801 22.3064 28.1187 21.6517 27.4274 21.4048ZM10.4326 18.908C16.2159 16.8426 22.5359 16.8426 28.3192 18.908C30.0656 19.5318 31.2313 21.186 31.2313 23.0404V25.0193C31.2313 27.6122 28.9348 29.604 26.3679 29.2373L25.7784 29.1531C21.5316 28.5464 17.2202 28.5464 12.9734 29.1531L12.3838 29.2373C9.81698 29.604 7.52045 27.6122 7.52045 25.0193V23.0404C7.52045 21.186 8.68621 19.5318 10.4326 18.908Z" fill="black"/>
<path fill-rule="evenodd" clip-rule="evenodd" d="M28.4012 6.14979C30.2801 6.14979 31.8033 7.67294 31.8033 9.55183C31.8033 11.4307 30.2801 12.9539 28.4012 12.9539C27.6691 12.9539 27.0756 13.5474 27.0756 14.2795C27.0756 15.0116 27.6691 15.6051 28.4012 15.6051C31.7444 15.6051 34.4545 12.895 34.4545 9.55183C34.4545 6.20869 31.7444 3.49854 28.4012 3.49854C27.6691 3.49854 27.0756 4.09204 27.0756 4.82416C27.0756 5.55629 27.6691 6.14979 28.4012 6.14979Z" fill="black"/>
<path fill-rule="evenodd" clip-rule="evenodd" d="M30.8599 17.9795C30.9986 17.2606 31.6938 16.7903 32.4127 16.929C33.4644 17.1319 34.5043 17.4153 35.5233 17.7792C37.0085 18.3097 38 19.7165 38 21.2936V22.8484C38 25.0586 36.0424 26.7563 33.8545 26.4438L33.3913 26.3776C32.6665 26.2741 32.1629 25.6026 32.2664 24.8778C32.37 24.1531 33.0415 23.6495 33.7662 23.753L34.2294 23.8192C34.8202 23.9036 35.3487 23.4452 35.3487 22.8484V21.2936C35.3487 20.837 35.0616 20.4296 34.6316 20.276C33.7401 19.9576 32.8304 19.7097 31.9104 19.5322C31.1916 19.3935 30.7212 18.6983 30.8599 17.9795Z" fill="black"/>
<path fill-rule="evenodd" clip-rule="evenodd" d="M9.5981 6.14979C7.7192 6.14979 6.19606 7.67294 6.19606 9.55183C6.19606 11.4307 7.7192 12.9539 9.5981 12.9539C10.3302 12.9539 10.9237 13.5474 10.9237 14.2795C10.9237 15.0116 10.3302 15.6051 9.5981 15.6051C6.25495 15.6051 3.5448 12.895 3.5448 9.55183C3.5448 6.20869 6.25495 3.49854 9.5981 3.49854C10.3302 3.49854 10.9237 4.09204 10.9237 4.82416C10.9237 5.55629 10.3302 6.14979 9.5981 6.14979Z" fill="black"/>
<path fill-rule="evenodd" clip-rule="evenodd" d="M7.13957 17.9795C7.00087 17.2606 6.30568 16.7903 5.58681 16.929C4.53516 17.1319 3.49519 17.4153 2.47619 17.7792C0.990967 18.3097 -0.000458797 19.7165 -0.000458797 21.2936V22.8484C-0.000458797 25.0586 1.95707 26.7563 4.14502 26.4438L4.60824 26.3776C5.33301 26.2741 5.83661 25.6026 5.73307 24.8778C5.62953 24.1531 4.95806 23.6495 4.23329 23.753L3.77007 23.8192C3.17933 23.9036 2.6508 23.4452 2.6508 22.8484V21.2936C2.6508 20.837 2.93786 20.4296 3.3679 20.276C4.2594 19.9576 5.16914 19.7097 6.08908 19.5322C6.80794 19.3935 7.27826 18.6983 7.13957 17.9795Z" fill="black"/>
</svg>
