<svg width="378" height="311" viewBox="0 0 378 311" fill="none" xmlns="http://www.w3.org/2000/svg">
<path fill-rule="evenodd" clip-rule="evenodd" d="M365.87 188.51C372.9 189.64 377.09 194.14 377.26 201.27H377.25C377.55 213.86 377.58 226.47 377.29 239.06C377.11 246.94 372.13 251.18 363.29 251.36C360.19 251.42 358.85 252.34 357.78 255.31C345.91 288.2 315.23 309.72 280.89 309.46C246.17 309.2 216.18 287.65 204.6 254.55C203.85 252.39 203.01 251.39 200.48 251.43C193.427 251.553 186.362 251.534 179.067 251.515H179.047H179.026H179.006L175.119 251.505L173.159 251.502L170.65 251.5C170.65 252.755 170.655 253.994 170.66 255.221C170.671 257.883 170.681 260.492 170.64 263.1C170.57 267.79 169.24 269.15 164.6 269.2C159.35 269.25 154.1 269.3 148.85 269.17C146.54 269.11 145.4 269.68 144.63 272.14C137.69 294.16 118.56 309.01 95.5901 310.45C73.5801 311.83 52.7103 299.54 43.1302 279.28C41.3401 275.49 40.0901 271.37 39.1402 267.27C38.5401 264.71 37.4302 263.16 35.1702 261.92C32.4605 260.427 29.7945 258.854 27.128 257.281L27.106 257.268C24.19 255.547 21.2737 253.827 18.3001 252.21C15.3001 250.57 13.9002 248.44 14.2103 245C14.2251 244.834 14.2383 244.667 14.2496 244.5C14.2581 244.374 14.2657 244.248 14.2723 244.121C14.2828 243.922 14.2908 243.723 14.2972 243.522C14.3321 242.413 14.3094 241.27 14.285 240.036V240.029L14.2698 239.234L14.2613 238.719C14.2547 238.26 14.25 237.788 14.25 237.3L13.7679 237.301L13.3196 237.304C12.8628 237.308 12.4214 237.315 11.992 237.321C10.5186 237.342 9.18706 237.361 7.86016 237.28C3.63018 237.03 0.790088 234.38 0.680225 230.16C0.500049 223.55 0.500049 216.94 0.660206 210.33C0.760059 205.95 3.60015 203.25 8.03008 202.95L8.33477 202.932C8.53154 202.921 8.72905 202.914 8.92754 202.908C9.18047 202.9 9.43511 202.895 9.69316 202.893C10.4104 202.886 11.1541 202.897 11.9551 202.908L12.5936 202.917C12.8914 202.921 13.1976 202.925 13.5137 202.927L14.24 202.93V198.82L14.2425 193.044L14.2508 184.417C14.2662 170.631 14.2813 156.848 14.1702 143.06C14.1302 139.2 15.5801 137.22 19.1602 135.87C29.3243 132.041 39.4678 128.163 49.6104 124.284L54.4976 122.416C58.9666 120.708 63.4361 119.001 67.9075 117.3C73.9231 115.013 79.9427 112.736 85.97 110.48C89.8101 109.04 92.1602 107.43 90.25 102.51C89.3235 102.51 88.358 102.514 87.3663 102.519H87.2825C86.0167 102.524 84.7085 102.529 83.3829 102.527C82.4773 102.525 81.5638 102.521 80.6502 102.51C76.2303 102.46 74.6302 101.05 74.6001 96.7799C74.5301 84.9298 74.5401 73.0797 74.6001 61.23C74.6302 56.8599 76.1602 55.4498 80.5401 55.4C82.7115 55.3804 84.8829 55.3863 87.084 55.3926L87.4639 55.3941L89.8563 55.399L90.73 55.4C90.8714 54.7969 91.0005 54.2178 91.1258 53.6558C91.2696 53.0113 91.4085 52.3887 91.5557 51.7784C91.6612 51.3409 91.771 50.9092 91.8902 50.48C95.0501 39.17 104.54 30.88 116.35 30.65C136.71 30.2501 157.09 30.3199 177.45 30.8697C182.896 31.0133 188.406 32.9542 193.674 34.8106L194.41 35.0699C201.41 37.5299 206.08 42.5401 209.34 49.4C218.359 68.3917 227.656 87.2486 236.955 106.108L240.187 112.665L242.12 116.59C242.58 117.52 243.77 118.69 244.65 118.72C249.054 118.863 253.469 118.847 258.05 118.831C259.544 118.825 261.056 118.82 262.59 118.82L262.607 118.476L262.636 117.94L262.691 117.038L262.715 116.641C262.742 116.199 262.767 115.771 262.784 115.349C262.8 114.962 262.81 114.581 262.81 114.2C262.83 97.48 262.83 80.7701 262.81 64.0499V63.8682C262.799 60.5831 262.788 57.44 267.01 56.3599C267.57 56.2198 267.99 54.5299 268.02 53.5499C268.13 49.44 268.07 45.3199 268.07 41.1998C268.07 33.4898 268.33 33.1798 276.24 32.1597C276.24 31.5958 276.236 31.0289 276.229 30.4605C276.222 29.8321 276.211 29.2017 276.201 28.5694V28.5562C276.154 25.7481 276.107 22.9039 276.31 20.0797C276.55 16.7598 276.92 13.3096 278.1 10.2501C280.44 4.21003 285.36 1.21003 291.78 0.889716C294.467 0.757392 297.169 0.780341 299.868 0.80329C301.046 0.813056 302.224 0.822821 303.4 0.819892C306.45 0.809638 308.7 2.14997 308.73 5.30964C308.76 8.46979 306.63 9.85993 303.5 9.80964C300.13 9.75007 296.75 9.75007 293.38 9.80964C288.45 9.88972 286.09 11.6099 285.64 16.5596C285.327 20.0699 285.401 23.6138 285.475 27.1744L285.477 27.2344C285.508 28.7769 285.54 30.3223 285.54 31.8697C285.68 32.0001 285.85 32.2701 286.05 32.2999C290.93 32.9932 293.37 35.7764 293.37 40.65V56.1397C298.07 56.7701 298.71 59.7999 298.68 63.7598C298.578 76.109 298.593 88.4586 298.609 100.808L298.61 101.843C298.615 105.989 298.62 110.134 298.62 114.28V118.83H314.58C323.09 118.84 325.73 120.93 327.61 129.56C327.836 129.56 328.065 129.558 328.297 129.556L329.089 129.547C330.121 129.533 331.188 129.52 332.25 129.56C336.93 129.73 339.89 132.26 340.15 136.85C340.41 141.45 340.41 146.09 340.15 150.69C339.89 155.29 336.93 157.79 332.24 157.95C332.014 157.956 331.787 157.961 331.56 157.963C330.946 157.971 330.332 157.967 329.714 157.962C329.07 157.957 328.423 157.95 327.77 157.95C326.7 160.72 327.32 162.44 329.66 164.12C337.77 169.91 344.49 177.1 349.79 185.54C350.94 187.36 352.2 187.99 354.3 187.98C358.16 187.95 362.08 187.9 365.87 188.51ZM330.97 138.66H327.42V148.71H330.97V138.66ZM83.8101 93.2999H90.6602V64.5098H83.8101V93.2999ZM9.84014 228.22H14.0401V212.1H9.84014V228.22ZM284.15 41.7701H277.26V56.17H284.15V41.7701ZM289.4 65.63H272.11V118.55H289.4V65.63ZM314.66 127.74C288.57 127.84 262.48 127.85 236.4 127.73H236.41C233.23 127.71 232.69 128.96 232.72 131.7C232.8 138.162 232.791 144.62 232.782 151.079V151.132C232.778 154.371 232.773 157.609 232.78 160.85C232.78 161.77 232.95 162.7 233.08 163.92C260.17 145.71 288.35 143.35 318.25 156.74C318.25 154.261 318.242 151.822 318.234 149.411C318.214 143.244 318.195 137.264 318.31 131.29C318.37 128.46 317.41 127.74 314.66 127.74ZM118.05 39.4698C107.25 39.63 99.9002 47.48 99.8401 58.2799V58.2701C99.7403 77.2198 99.7801 96.1798 99.8602 115.13C99.8902 122.18 102.19 128.54 106.29 134.31C107.85 136.51 109.57 137.53 112.45 137.53C140.503 137.443 168.561 137.45 196.617 137.456H197.054L210.164 137.459L219.65 137.46H223.63C223.693 136.274 223.701 135.068 223.71 133.865C223.755 127.237 223.799 120.737 233 118.63C232.866 118.334 232.74 118.051 232.619 117.78L232.297 117.05C231.951 116.263 231.644 115.566 231.31 114.88C228.432 109.003 225.529 103.137 222.627 97.2696L222.614 97.2432C215.578 83.0225 208.541 68.7984 201.84 54.42C198.74 47.7701 194.15 43.8199 187.46 42.0098C183.16 40.8399 178.68 39.67 174.27 39.5997C155.53 39.3096 136.79 39.1998 118.05 39.4698ZM144.37 173.15C150.1 176.88 155.79 177.64 161.68 177.64C166.221 177.64 170.762 177.633 175.303 177.627C188.502 177.608 201.701 177.589 214.9 177.73C218.57 177.77 220.6 176.3 222.29 173.15H144.37ZM210.315 190.178L210.325 190.156L210.334 190.137L211.126 188.475C211.372 187.96 211.623 187.438 211.88 186.91H197.55V199.79C199.57 199.79 201.43 200 203.22 199.72C204.36 199.54 205.87 198.91 206.37 198.02C206.652 197.518 206.928 197.012 207.198 196.502L207.474 195.976C207.615 195.706 207.754 195.436 207.892 195.164C208.368 194.228 208.833 193.275 209.301 192.302C209.633 191.612 209.965 190.912 210.304 190.2L210.315 190.178ZM199.796 163.973L206.793 163.976L213.777 163.98L219.76 163.98V163.97H223.54V159.84H130.09C131.67 162.7 133.41 164.07 136.66 164.05C157.706 163.951 178.751 163.962 199.796 163.973ZM117.9 146.69C119.36 149.5 121.1 150.71 124.18 150.7C148.119 150.618 172.052 150.619 195.987 150.621C204.018 150.622 212.049 150.622 220.08 150.62C220.816 150.62 221.553 150.565 222.323 150.508L222.622 150.486L223.059 150.455L223.46 150.43V146.69H117.9ZM46.7601 255.55C46.5601 280.85 67.23 301.62 92.5601 301.57C117.68 301.52 138.06 281.22 138.11 256.17C138.16 230.96 117.98 210.46 93 210.34C67.7103 210.21 46.9603 230.51 46.7601 255.55ZM213.46 251.6C219.14 272.78 243.09 299.38 279.35 300.46C317.59 301.6 342.67 273.86 349.35 251.6H213.46ZM361.58 242.5C367.75 242.5 368.48 241.73 368.5 235.6L368.51 235.57C368.54 225.22 368.56 214.86 368.49 204.51C368.45 198.23 367.06 196.92 360.66 196.9C357.498 196.893 354.335 196.896 351.172 196.902L348.124 196.909C339.553 196.928 330.981 196.948 322.41 196.8C318.66 196.73 315.99 197.75 313.7 200.7C310.29 205.09 305.85 208.44 300.18 208.56C285.81 208.86 271.43 208.75 257.06 208.64C253.6 208.62 251.65 205.76 252.61 202.82C253.46 200.2 255.51 199.72 257.95 199.72C262.243 199.733 266.537 199.728 270.832 199.721C279.162 199.71 287.493 199.698 295.82 199.83C300.47 199.91 304.17 198.5 306.91 194.84C310.95 189.45 316.3 187.47 322.94 187.84C326.838 188.061 330.756 188.01 334.789 187.957C336.59 187.934 338.415 187.91 340.27 187.91C326.92 167.55 297.9 151.79 265.83 158.86C243.85 163.7 217.91 185.13 216.41 199.74C218.994 199.74 221.578 199.737 224.161 199.735C229.326 199.731 234.491 199.727 239.65 199.74C243.68 199.75 245.78 201.29 245.78 204.16C245.78 206.99 243.56 208.71 239.68 208.71C234.162 208.725 228.644 208.735 223.125 208.742C217.462 208.75 211.798 208.753 206.135 208.753L200.9 208.753L194.68 208.75C189.88 208.75 188.38 207.26 188.35 202.55C188.33 199.143 188.337 195.735 188.343 192.269L188.345 191.394L188.348 189.307L188.35 186.77H163.42V221.8H167.79L185.693 221.799H186.336C212.901 221.796 239.462 221.793 266.03 221.85C268.62 221.86 270.24 221.31 271.82 218.97C275.55 213.46 283.26 212.76 288.33 217.04C293.36 221.29 293.74 228.95 289.16 233.69C284.51 238.5 276.88 238.58 272.55 233.43C270.68 231.21 268.79 230.74 266.16 230.74C231.449 230.79 196.747 230.78 162.035 230.77H162.03H162.025H162.02H162.015H161.17C155.2 230.77 154.17 229.74 154.17 223.79C154.15 212.31 154.14 200.84 154.18 189.36C154.19 187.45 154.01 186.11 151.64 185.63C142.38 183.75 134.93 178.79 128.61 171.85C120.38 162.79 112.05 153.83 103.62 144.96C96.97 137.97 92.5301 129.97 91.2701 120.33C91.2479 120.162 91.2088 119.997 91.158 119.832L91.1128 119.693L91.0748 119.586C91.0323 119.47 90.9854 119.353 90.9363 119.235L90.8165 118.953L90.8113 118.941C90.7432 118.782 90.6734 118.619 90.6067 118.45C90.5806 118.384 90.555 118.318 90.5301 118.25L79.8792 122.317C61.606 129.295 43.4571 136.225 25.3501 143.26C24.3702 143.64 23.3301 145.39 23.3301 146.5C23.23 178.44 23.24 210.37 23.2801 242.31C23.2801 243.22 23.47 244.59 24.0601 244.96L24.6753 245.347L25.1614 245.65L25.5176 245.871C28.2659 247.569 31.0721 249.205 33.9507 250.882C35.1509 251.582 36.3636 252.288 37.5901 253.01C40.6001 218.91 69.25 200.34 94.0801 201.37C106.88 201.9 118.3 206.12 127.99 214.49C141.81 226.43 147.82 241.84 147.15 259.99H161.19C161.254 259.792 161.319 259.621 161.377 259.468C161.431 259.325 161.479 259.198 161.515 259.08C161.555 258.946 161.58 258.823 161.58 258.7L161.592 257.951C161.614 256.431 161.627 254.908 161.637 253.385L161.66 249.72C161.69 243.56 162.71 242.52 168.84 242.52H277.21L293.915 242.521C316.47 242.523 339.028 242.524 361.58 242.5ZM280.85 223.46C280.02 223.47 278.58 224.82 278.56 225.61C278.547 226.258 279.054 226.915 279.75 227.815C280.106 228.276 280.51 228.8 280.92 229.42C281.123 229.098 281.324 228.801 281.519 228.524C281.691 228.28 281.858 228.052 282.015 227.838L282.046 227.796C282.723 226.873 283.216 226.2 283.19 225.55C283.16 224.77 281.68 223.46 280.85 223.46ZM54.8001 158.71H41.3101V158.72C38.2901 158.72 36.0601 157.61 36.0103 154.3C35.9603 151.01 38.1001 149.74 41.1602 149.74L50.2786 149.738C53.4102 149.736 56.5413 149.735 59.6729 149.736L64.577 149.737L68.5103 149.74C71.5701 149.74 73.6902 151.04 73.6202 154.33C73.5501 157.64 71.3001 158.72 68.2901 158.71C63.7901 158.7 59.3001 158.71 54.8001 158.71ZM68.23 165.63C59.24 165.55 50.25 165.57 41.2701 165.63C38.3401 165.65 36.0101 166.77 36 170.13C36 173.46 38.17 174.6 41.21 174.59C45.7 174.57 50.2 174.59 54.69 174.59L57.407 174.587L58.7188 174.585C61.8694 174.579 65.0223 174.572 68.17 174.6C71.15 174.63 73.3902 173.73 73.6402 170.38C73.8602 167.48 71.8899 165.68 68.22 165.65L68.23 165.63ZM55.0601 181.7H68.5401C71.41 181.69 73.5 182.8 73.6202 185.91C73.75 189.23 71.6001 190.61 68.6001 190.63C59.3702 190.71 50.1302 190.71 40.8902 190.63C38.0801 190.61 35.98 189.29 35.99 186.17C36 182.84 38.1602 181.7 41.2 181.7H55.0601ZM114.83 115.31C115.97 121.19 119.26 125.66 125.18 126.83C129.666 127.718 134.374 127.662 139.006 127.607L140.44 127.59C142.99 127.57 144.58 125.63 144.45 123.05C144.33 120.52 142.8 118.92 140.09 118.85C138.962 118.821 137.832 118.813 136.702 118.811C135.457 118.809 134.212 118.815 132.97 118.81C125.16 118.77 123.43 117.09 123.42 109.41C123.4 95.19 123.41 80.98 123.42 66.7598C123.42 65.5699 123.59 64.3697 123.68 63.23C123.816 63.1973 123.939 63.1646 124.052 63.1334C124.151 63.1055 124.242 63.0787 124.326 63.0533C124.514 62.9976 124.669 62.9508 124.81 62.9215C124.908 62.9014 124.999 62.8897 125.09 62.8897L133.275 62.8785C146.917 62.859 160.558 62.8399 174.2 62.8897C177.76 62.9 180.22 64.71 181.68 68.0797C183.417 72.0758 185.184 76.0587 186.96 80.0377L188.936 84.4615C190.82 88.6739 192.703 92.8863 194.56 97.1099C196.633 101.819 198.649 106.556 200.775 111.546L200.795 111.594C201.791 113.933 202.81 116.327 203.87 118.8H199.02H157.41L156.81 118.798C156.377 118.796 155.944 118.795 155.511 118.801C155.144 118.807 154.777 118.818 154.41 118.84C151.75 119 149.84 120.61 150.24 123.06C150.51 124.71 152.39 126.28 153.87 127.49C154.57 128.06 156.04 127.77 157.16 127.77C174.03 127.78 190.9 127.79 207.77 127.77C214.74 127.77 216.44 125.32 213.69 119C207.577 104.908 201.422 90.8345 195.267 76.7598L195.199 76.6031L189.78 64.21C186.75 57.2799 181.29 53.9298 173.86 53.8897C159.151 53.8062 144.443 53.8345 129.734 53.8629L126.25 53.8697C117.63 53.88 114.43 57.0396 114.41 65.5499C114.38 80.3897 114.39 95.23 114.41 110.07C114.41 111.81 114.47 113.58 114.8 115.28L114.83 115.31ZM74.1202 255.93C74.1302 245.76 82.2303 237.6 92.4002 237.52C102.58 237.44 111.08 245.95 110.97 256.109C110.86 266.18 102.55 274.31 92.4002 274.26C82.1602 274.22 74.1202 266.149 74.1202 255.93ZM83.1702 255.66C83.0701 261.05 87.0901 265.22 92.4202 265.25H92.4102C97.6802 265.28 102 260.99 101.93 255.82C101.86 250.81 97.6001 246.58 92.5701 246.53C87.5003 246.48 83.2701 250.58 83.1702 255.66Z" fill="black"/>
</svg>
