<svg width="361" height="354" viewBox="0 0 361 354" fill="none" xmlns="http://www.w3.org/2000/svg">
<path fill-rule="evenodd" clip-rule="evenodd" d="M344.62 220.02C354.17 221.66 360 228.59 360.03 238.28L360.01 238.3C360.07 258.5 360.08 278.71 360.01 298.92C359.98 309.66 352.31 317.31 341.6 317.42C338.842 317.448 336.087 317.452 333.31 317.448C330.176 317.444 327.014 317.43 323.79 317.43C317.69 340.39 302.51 353.34 282.03 353.34C261.56 353.34 246.21 340.25 240.33 317.63H119.59C117.5 329.2 111.96 338.66 102.36 345.52C94.4801 351.15 85.6002 353.78 75.9202 353.26C57.95 352.3 40.5301 339.85 36.4102 317.42H20.1102C7.32014 317.41 0.0401111 310.22 0.0401111 297.56C0.0376697 292.201 0.036449 286.842 0.0359607 281.483C0.0349842 272.789 0.036449 264.095 0.0379139 255.4L0.0401111 234.32C0.0501209 222.1 6.2801 215.36 18.3602 214.06C28.2901 212.99 38.1903 211.66 48.0802 210.27C49.1702 210.12 50.5301 209.05 51.0401 208.04C59.8902 190.6 68.6502 173.11 77.3602 155.59C79.1702 151.94 76.9202 147.65 72.9801 146.97C69.868 146.435 66.7535 145.921 63.6402 145.409C60.471 144.887 57.3031 144.365 54.1402 143.82C49.7401 143.06 48.0701 141.16 48.0501 136.77C48.0001 125.42 48.0001 114.07 48.0501 102.72C48.0701 98.54 49.7901 96.5498 53.9002 95.8398C60.1802 94.75 66.4603 93.6997 72.7501 92.7397C75.1602 92.3701 76.6002 91.4697 77.4002 88.8798C78.6102 84.9697 80.22 81.1396 82.1302 77.52C83.3402 75.2397 82.9901 73.77 81.5601 71.8701C78.7447 68.1308 76.0196 64.3193 73.3128 60.4975L71.5584 58.017L70.6202 56.6899C67.8502 52.77 68.0701 50.2299 71.5001 46.79C74.6846 43.5888 77.8741 40.393 81.0679 37.2016C85.647 32.6259 90.2352 28.0595 94.8302 23.5C98.3902 19.9599 100.86 19.7797 105.05 22.7397L106.477 23.7461C111.202 27.0791 115.925 30.4101 120.55 33.8901C122.21 35.1298 123.45 35.1098 125.26 34.25C129.2 32.3901 133.23 30.6596 137.35 29.27C139.58 28.5097 140.49 27.3398 140.83 25.1401C141.81 18.7299 142.9 12.3398 144.01 5.95992C144.73 1.81002 146.69 0.0800368 150.85 0.0600172C162.35 0.00972426 173.85 -4.13647e-05 185.35 0.0600172C189.32 0.0800368 191.36 1.83004 192.04 5.69967C193.16 12.08 194.23 18.4697 195.2 24.8798C195.55 27.1899 196.43 28.5 198.86 29.2797C202.88 30.5698 206.81 32.2597 210.59 34.1401C212.7 35.1899 214.1 34.9897 215.93 33.6098C219.876 30.6308 223.916 27.7778 227.955 24.9253L227.977 24.9106L228.009 24.8872L228.377 24.6264L229.396 23.9072L231.13 22.6796C235.11 19.8501 237.7 19.9697 241.07 23.31C248.97 31.1298 256.84 38.9799 264.67 46.8598C268.02 50.2397 268.19 52.8398 265.4 56.7797L263.876 58.9316C260.708 63.4067 257.541 67.8813 254.24 72.2597C252.93 74.0097 252.91 75.3398 253.85 77.2797C255.74 81.1997 257.4 85.2397 258.83 89.3501C259.55 91.4096 260.66 92.29 262.72 92.6098C266.377 93.1748 270.03 93.7753 273.682 94.3911C276.432 94.8549 279.181 95.3271 281.93 95.7998C286.33 96.56 288.01 98.4599 288.03 102.85C288.08 114.2 288.08 125.55 288.03 136.9C288.01 141.06 286.27 143.07 282.17 143.78C276.02 144.86 269.87 145.93 263.69 146.82C260.95 147.21 259.76 148.49 258.46 151.04C255.84 156.15 256.9 160.1 259.68 164.73C266.882 176.741 273.775 188.929 280.668 201.117C281.815 203.145 282.961 205.173 284.11 207.2C285.23 209.19 286.43 210.29 288.85 210.68C307.46 213.68 326.04 216.82 344.62 220.02ZM271.061 209.152L271.065 209.142C271.085 209.09 271.102 209.047 271.113 209.01C271.121 208.985 271.127 208.963 271.128 208.944C271.131 208.922 271.128 208.904 271.12 208.89H271.13L267.234 202.049L267.193 201.977C259.819 189.022 252.447 176.072 245.01 163.15C244.61 162.46 243.5 161.78 242.71 161.78C228.791 161.713 214.864 161.716 200.798 161.719L192.32 161.72V209.43H270.96C270.996 209.319 271.031 209.227 271.061 209.152ZM60.2601 106.93V132.55L60.2701 132.52C69.0701 134.18 77.6802 135.8 86.5601 137.48C87.1536 136.994 87.7896 136.479 88.4559 135.94L88.4898 135.913C90.6676 134.15 93.1661 132.127 95.5601 130C96.22 129.41 96.5101 128.13 96.5301 127.15C96.5738 125.207 96.5352 123.256 96.4967 121.306V121.29C96.4293 117.886 96.3619 114.483 96.7301 111.13C99.8502 82.77 120.02 59.0698 147.53 51.0297C175.43 42.8798 205.69 51.9897 223.64 74.1699C236.41 89.9599 241.79 108 239.45 128.26L239.397 128.701C239.216 130.167 239.001 131.918 239.69 132.88C241.572 135.504 243.692 137.961 245.973 140.605C246.856 141.628 247.763 142.68 248.69 143.78C248.916 136.947 253.71 136.253 258.645 135.54L258.92 135.5C262.914 134.921 266.894 134.228 270.865 133.536C272.522 133.248 274.176 132.959 275.83 132.68V106.9C273.76 106.544 271.707 106.182 269.664 105.821C264.87 104.974 260.135 104.138 255.38 103.43C251.81 102.9 250.1 100.96 248.9 97.6596C246.56 91.25 244 84.8798 241.03 78.7397C239.28 75.1201 239.33 72.29 241.75 69.1001C244.566 65.3857 247.254 61.5693 249.875 57.851C251.015 56.2334 252.142 54.6342 253.26 53.0698L234.91 34.6899C234.327 35.1074 233.741 35.5253 233.153 35.9438L231.593 37.0512L229.968 38.2021L229.962 38.2065C226.201 40.8691 222.387 43.5693 218.65 46.3701C215.57 48.6699 212.8 48.6997 209.31 47.0297C203.14 44.08 196.79 41.4497 190.36 39.1401C186.9 37.8999 184.92 36.1596 184.38 32.4296C184.144 30.7822 183.888 29.1372 183.619 27.4936C183.112 24.3911 182.559 21.2944 182.006 18.1982C181.838 17.2597 181.67 16.3212 181.504 15.3828C181.317 14.3286 181.132 13.2744 180.95 12.2197H155.14C154.809 14.1254 154.473 16.018 154.138 17.9008L154.131 17.9419L154.13 17.9477L154.129 17.9536L154.129 17.9594L154.128 17.9653C153.253 22.8872 152.389 27.7456 151.66 32.6201C151.13 36.1796 149.19 37.8999 145.89 39.1001C139.46 41.4497 133.1 44.02 126.93 46.9599C123.33 48.6796 120.47 48.6499 117.27 46.2299C115.398 44.8139 113.501 43.4321 111.604 42.0771C109.705 40.7207 107.807 39.3911 105.936 38.0805L105.913 38.0644L105.891 38.0498L103.893 36.6494C103.269 36.2114 102.649 35.7749 102.034 35.3403L101.23 34.77L93.1309 42.7822L91.0299 44.8608C88.2747 47.5869 85.5306 50.3012 82.7601 53.04C83.1568 53.5927 83.5535 54.1479 83.9505 54.705C84.669 55.7128 85.3887 56.727 86.1109 57.7446L86.1212 57.7592L86.1387 57.7841L86.1805 57.8427L86.1871 57.8515C88.8941 61.6655 91.6353 65.5278 94.4801 69.2998C96.8001 72.3798 96.8101 75.1499 95.1502 78.6201C92.2103 84.7797 89.5701 91.1098 87.2401 97.5297C85.9901 100.97 84.2401 102.96 80.5001 103.5C75.723 104.192 70.9656 105.037 66.2108 105.882L66.2056 105.884L64.4984 106.187L62.6429 106.515L61.2467 106.759L60.2601 106.93ZM192.9 86.3598L192.87 86.3701L192.88 86.3798C191.699 87.5712 190.499 88.7895 189.282 90.0249C185.564 93.8003 181.691 97.7324 177.71 101.54C176.8 102.41 174.86 102.99 173.67 102.68C159.54 98.9599 147.86 109.7 150.63 124C150.72 124.48 150.71 124.98 150.75 125.63H114.04V113.98C112.07 113.85 110.5 113.75 108.01 113.59C109.68 107.32 111.25 101.42 112.91 95.1796L115.131 96.31L115.175 96.332C116.232 96.8706 117.188 97.3564 118.29 97.9199C119.238 96.2963 120.189 94.6767 121.156 93.0273L121.313 92.7607L121.67 92.1513L121.727 92.0546C122.525 90.6953 123.337 89.3125 124.17 87.8901C122.64 86.8398 121.25 85.8901 119.15 84.4497L126.127 77.5024C128.276 75.3623 130.426 73.2192 132.63 71.02L133.782 72.7451L134.709 74.1342C135.126 74.7607 135.534 75.3754 135.98 76.0498C138.643 74.5195 141.232 73.0258 143.863 71.5058L146.09 70.2197C145.26 68.5898 144.54 67.1699 143.4 64.9199C149.53 63.27 155.43 61.6796 161.73 59.9799C161.839 61.2334 161.927 62.2656 162.008 63.2387L162.21 65.6699H173.91C173.98 64.0898 174.06 62.5297 174.17 60.0498C180.47 61.6596 186.38 63.1699 192.66 64.77L192.113 65.8823L191.429 67.2719L190.696 68.7602L189.98 70.2197C191.944 71.354 193.888 72.4741 195.883 73.625L196.747 74.123L200.02 76.0097C201.04 74.52 201.99 73.1401 203.44 71.04L216.91 84.4497L214.227 86.2675L211.89 87.8501L212.999 89.7685C214.552 92.4575 216.1 95.1362 217.7 97.8999L218.827 97.3427L220.537 96.4951L223.14 95.1997L223.976 98.3286L225.65 104.613C226.438 107.572 227.227 110.537 228.04 113.58C225.58 113.76 224 113.87 222.17 114V125.5H186.13C186.049 124.79 185.964 124.083 185.878 123.379L185.732 122.195C185.367 119.244 185.008 116.335 184.84 113.41C184.78 112.31 185.56 110.9 186.38 110.05C190.187 106.138 194.068 102.293 197.929 98.4702L197.971 98.4277C199.207 97.2036 200.441 95.9814 201.67 94.7597C198.743 91.9726 195.996 89.3559 192.88 86.3798L192.9 86.3598ZM167.94 125.77C171.15 125.83 173.91 123.22 174.02 120V120.01C174.13 116.81 171.55 114 168.34 113.84C165.13 113.68 162.29 116.21 162.08 119.42C161.86 122.77 164.57 125.7 167.94 125.77ZM48.0601 311.28C48.0101 327.7 61.2901 341.22 77.6202 341.36H77.6302C94.4002 341.51 108.02 328.07 108.05 311.36C108.07 295.04 94.6502 281.57 78.2801 281.49C61.6602 281.41 48.1102 294.77 48.0601 311.28ZM119.66 305.33H179.78L179.79 305.32V221.59H175.43C150.31 221.59 125.19 221.6 100.07 221.59C89.2901 221.59 84.0802 214.61 87.1702 204.29C91.4547 189.977 95.7894 175.674 100.124 161.372L100.147 161.294L100.171 161.216L100.23 161.02C102.92 152.15 106.15 149.74 115.32 149.74H233.04H237.25C233.24 141.49 227.27 137.73 218.75 137.74C212.067 137.749 205.385 137.763 198.703 137.777C170.639 137.834 142.579 137.892 114.52 137.65C104.08 137.56 97.4901 141.72 92.9801 151.04C86.3795 164.684 79.5648 178.227 72.7498 191.77L69.9305 197.375C66.7637 203.673 63.6031 209.975 60.47 216.29C58.8201 219.62 56.6602 221.4 52.8101 221.82C45.2181 222.64 37.6397 223.627 30.0628 224.615L30.0233 224.621L30.005 224.623L29.9559 224.629C27.6815 224.926 25.4073 225.222 23.1329 225.514C21.752 225.691 20.3712 225.867 18.9901 226.04C13.8001 226.68 12.0701 228.54 12.0701 233.84C12.0501 248.68 12.0601 263.53 12.0701 278.37C12.0701 279.32 12.21 280.27 12.3101 281.62H29.8602V293.52H12.0902C12.0902 294.293 12.0743 295.024 12.0592 295.727L12.0584 295.754C12.0423 296.506 12.0269 297.226 12.033 297.928C12.0384 298.58 12.0621 299.216 12.1202 299.85C12.4102 302.97 14.2701 305.16 17.3402 305.29C21.8326 305.481 26.3299 305.442 30.7965 305.402C32.6336 305.386 34.4656 305.37 36.2901 305.37C42.1502 283.44 56.2003 270.65 75.3902 269.6C84.6502 269.09 93.2501 271.29 101 276.39C111.45 283.26 117.4 293.15 119.66 305.33ZM98.2301 209.4H179.9V209.39V161.71L170.409 161.709H170.389H170.37H170.351C151.571 161.705 133.011 161.701 114.45 161.83C113.53 161.84 112.12 163.37 111.77 164.46C110.805 167.47 109.868 170.489 108.947 173.513C107.86 177.083 106.794 180.66 105.729 184.236L105.725 184.248L105.246 185.855L104.28 189.09L103.42 191.966C102.573 194.802 101.729 197.641 100.883 200.488L99.2847 205.863L98.2301 209.4ZM252.06 311.54C252.1 327.9 265.53 341.33 281.88 341.36H281.89C298.63 341.39 312.14 327.84 312.05 311.1C311.96 294.81 298.43 281.46 282.02 281.49C265.44 281.51 252.01 294.98 252.06 311.54ZM342.52 305.33C345.62 305.22 347.56 303.16 347.94 300.08C348.117 298.686 348.077 297.265 348.033 295.716C348.012 294.986 347.99 294.227 347.99 293.43H330.31V281.41H347.86V269.51L345.516 269.512L344.131 269.514L340.691 269.52C335.211 269.533 329.818 269.545 324.43 269.49C317.22 269.41 312.2 264.41 312.07 257.25C311.99 253.38 311.98 249.51 312.07 245.65C312.23 238.66 317.2 233.71 324.23 233.6C325.537 233.579 326.844 233.565 328.151 233.558C329.086 233.552 330.021 233.55 330.956 233.549C332.651 233.547 334.346 233.552 336.041 233.556L338.681 233.562C339.988 233.564 341.295 233.564 342.6 233.56C343.092 233.554 343.587 233.499 344.084 233.436C344.455 233.39 344.828 233.338 345.2 233.3C343.94 232.21 342.69 231.74 341.39 231.52C338.794 231.081 336.198 230.635 333.602 230.189C325.5 228.798 317.394 227.407 309.26 226.21C308.059 226.034 306.857 225.85 305.654 225.662C303.971 225.398 302.287 225.126 300.603 224.853L300.591 224.852C291.884 223.444 283.169 222.035 274.43 221.81C255.889 221.333 237.328 221.428 218.768 221.523C211.211 221.561 203.655 221.6 196.1 221.6H192.25V305.16H240.49C244.89 284.4 260.25 270.51 279.62 269.58C289.3 269.12 298.2 271.57 306.12 277.14C315.88 284.01 321.5 293.55 323.64 305.39C325.546 305.39 327.435 305.403 329.311 305.416C333.763 305.447 338.144 305.478 342.52 305.33ZM347.74 257.27V245.75H324.21V257.27H347.74ZM125.89 245.35H102.23V233.85H125.89V245.35ZM204.21 245.29H227.74V233.77H204.21V245.29ZM137.96 119.61H126.37V119.62C125.37 99.2597 143.34 77.9599 167.77 78.0395V89.6997C159.8 90.2299 152.59 92.8798 146.81 98.7099C141.12 104.44 138.34 111.46 137.96 119.61ZM72.1302 317.1H83.8001V305.72H72.1302V317.1ZM287.83 317.24H276.32V305.68H287.83V317.24Z" fill="black"/>
</svg>
