<svg width="385" height="330" viewBox="0 0 385 330" fill="none" xmlns="http://www.w3.org/2000/svg">
<path fill-rule="evenodd" clip-rule="evenodd" d="M357.04 228.62C371.58 237.25 380.43 249.95 383.35 266.68L383.34 266.69C383.376 266.902 383.433 267.111 383.501 267.318C383.587 267.585 383.693 267.848 383.798 268.111L383.9 268.368C383.949 268.492 383.996 268.616 384.04 268.74V281.47L383.796 282.467L383.475 283.803L383.466 283.839C382.993 285.811 382.52 287.781 381.97 289.73C376.1 310.39 358.25 326.24 337.54 328.5C314.4 331.02 296.4 322.21 283.92 302.54C282.46 300.24 281.13 299.37 278.41 299.37C226.77 299.46 175.13 299.47 123.49 299.37C120.48 299.37 119.11 299.97 118.65 303.2C117.879 308.677 116.639 314.094 115.404 319.493L115.399 319.51L115.36 319.68C113.97 325.74 109.54 329.31 103.29 329.35C90.8199 329.43 78.3399 329.44 65.8697 329.35C59.65 329.31 55.2598 325.69 53.8799 319.59C52.5699 313.76 51.3497 307.9 50.3301 302.01C49.9698 299.94 49.1299 299.47 47.17 299.38C46.4068 299.345 45.6387 299.319 44.8687 299.293C41.3907 299.174 37.8726 299.054 34.5899 298.17C21.0801 294.52 12.7798 282.91 12.7798 268.23C12.7735 226.983 12.7755 185.737 12.7779 144.49L12.7798 82.6202V77.8501C12.4151 77.8501 12.0601 77.8526 11.713 77.856L10.815 77.8663H10.774H10.7154L10.1143 77.8736C9.86774 77.8765 9.62457 77.879 9.38385 77.8799C8.54498 77.8833 7.73639 77.8741 6.92975 77.8301C3.19977 77.6202 0.899964 75.3999 0.849671 71.6299C0.750061 63.3902 0.63971 55.1499 0.88971 46.9302C1.16998 37.8599 8.66998 30.2403 17.7398 30.0401C28.5767 29.8096 39.4214 29.8858 50.2593 29.9615L54.4097 29.9903C58.1998 30.0103 60.71 32.6299 60.6597 36.0201C60.5997 39.3999 58.0699 41.8399 54.23 41.8902C46.6197 41.98 39.0098 41.94 31.4 41.92C29.939 41.9165 28.5914 41.9048 27.3482 41.8941H27.3262H27.3028C19.9561 41.8301 16.2847 41.7984 14.4664 43.6182C12.65 45.4366 12.6837 49.1031 12.7505 56.4317C12.7628 57.7437 12.7759 59.1729 12.7798 60.73V65.69H353.92C353.92 64.6324 353.93 63.5723 353.943 62.5098L353.963 61.1744L353.973 60.5567V60.5362V60.5259V60.5098C354.044 55.8516 354.115 51.167 353.67 46.5303C353.53 45.0704 351.19 43.6719 349.288 42.5352C349.013 42.3711 348.748 42.2124 348.5 42.0601C347.59 41.5 346.07 41.9302 344.82 41.9302H105.7C99.5201 41.9302 96.71 40.1001 96.6397 36.0401C96.5601 31.8702 99.46 29.9502 105.86 29.9502H253.3H258.29V13.8501C258.31 4.70024 262.96 0.010299 272.06 0.010299C282.076 0.00346308 292.096 -0.00288458 302.115 -0.000443169L308.58 0.00248652C311.25 0.00395136 313.92 0.00688105 316.59 0.010299C325.48 0.0200646 330.13 4.72026 330.15 13.69C330.154 16.107 330.155 18.524 330.153 20.9971L330.152 24.1539L330.15 29.9502C331.593 29.9502 333.025 29.982 334.447 30.0137C337.53 30.0826 340.569 30.1499 343.58 29.8902C357.97 28.6402 367.36 37.6402 366.15 52.6099C365.841 56.4317 365.923 60.2911 366.004 64.149L366.029 65.3472L366.045 66.1382C366.065 67.2398 366.08 68.3404 366.08 69.44C366.07 76.0601 364.3 77.8204 357.65 77.8599H354.11V81.5601L354.111 107.401C354.114 146.06 354.117 184.723 354.06 223.38C354.05 225.89 354.75 227.26 357.04 228.62ZM270.49 29.8101H317.88V12.17H270.49V29.8101ZM101.51 317.32C102.35 317.31 103.76 316.5 103.91 315.83V315.84C104.81 311.891 105.583 307.908 106.372 303.838L106.378 303.811L106.384 303.784L106.401 303.692C106.664 302.339 106.928 300.975 107.2 299.6H62.0601C62.2115 300.366 62.3599 301.126 62.5069 301.881L62.8843 303.834C63.6617 307.861 64.4136 311.754 65.3199 315.61C65.5001 316.36 66.9898 317.32 67.8897 317.32C79.0997 317.43 90.2999 317.42 101.51 317.32ZM273.63 287.44H277.6L277.62 287.45C273.86 267.77 278.4 250.9 292.18 237.07C305.93 223.26 322.9 219.02 341.9 222.4V179.66C336.18 179.66 330.71 179.7 325.24 179.65C320.86 179.61 318.18 177.24 318.23 173.6C318.28 169.96 320.93 167.76 325.39 167.69C326.274 167.678 327.156 167.68 328.038 167.684L328.445 167.686C328.923 167.688 329.401 167.69 329.88 167.69H341.94V78.1299H24.9498V167.69C27.7188 167.69 30.4761 167.679 33.2232 167.668L33.525 167.666C37.1817 167.65 40.8228 167.635 44.4556 167.645C47.959 167.655 51.4551 167.689 54.9498 167.77C58.0997 167.84 59.8199 166.94 61.3497 164.12C66.0201 155.487 70.7921 146.911 75.564 138.336L75.5875 138.295L78.7081 132.686C80.6412 129.207 82.5709 125.727 84.4898 122.24C86.2701 119.02 88.0997 116.05 92.4498 116.99C95.8096 117.72 97.0797 120.24 97.0797 125.7C97.0826 128.518 97.0831 131.334 97.0826 134.15L97.0816 139.035L97.0806 145.948C97.0811 149.305 97.0831 152.662 97.0899 156.02C97.0899 156.939 97.1422 157.858 97.2007 158.889C97.2271 159.35 97.2549 159.834 97.2798 160.35C100.433 160.35 103.553 160.348 106.651 160.346C112.76 160.341 118.785 160.337 124.81 160.35C130.93 160.37 132.59 161.72 133.71 167.7H138.11L183.648 167.698C214.005 167.696 244.36 167.693 274.72 167.7C279.45 167.7 282.19 169.92 282.22 173.64C282.25 177.37 279.49 179.61 274.8 179.67H272.18L246.985 179.672C207.976 179.676 168.971 179.681 129.96 179.59C127.06 179.58 125.56 180.53 124.09 182.92C115.55 196.84 106.83 210.64 98.17 224.49C94.8502 229.81 92.5401 231.39 89.3497 230.29C85.0181 228.799 85.0513 225.27 85.0845 221.738L85.086 221.544L85.0899 220.96C85.1197 213.47 85.1099 205.99 85.0899 198.5C85.0831 197.62 85.0328 196.74 84.9761 195.753L84.9717 195.67C84.9444 195.19 84.9151 194.684 84.8897 194.14H80.8897L78.1812 194.143C76.6612 194.145 75.1407 194.149 73.6202 194.153C67.5601 194.169 61.4976 194.186 55.44 194.1C49.6597 194.02 47.2501 189.8 49.8497 184.64C50.6099 183.12 51.4498 181.64 52.42 179.82H24.7501V183.55L24.7481 211.62C24.7457 230.334 24.7432 249.047 24.7501 267.76C24.7501 280.16 32.0801 287.44 44.5801 287.44H273.63ZM84.2198 147.39C77.8799 158.81 71.5499 170.24 64.8897 182.23L64.9 182.24L68.7833 182.239L76.3174 182.237C80.4649 182.235 84.4888 182.235 88.5098 182.24C95.3399 182.25 97.0499 184 97.0699 190.95V202.02C97.2139 202.038 97.356 202.058 97.4976 202.079L97.7545 202.119L98.0025 202.157L98.0201 202.16C104.09 192.41 110.16 182.66 116.61 172.31H94.0797C86.5396 172.31 85.0997 170.88 85.0899 163.41V147.54L84.2198 147.39ZM288.24 275.28C288.31 298.3 307.34 317.2 330.29 317.04C353.43 316.88 372.13 298.06 372.06 275C371.99 251.91 353.12 233.2 330.01 233.31C306.85 233.41 288.17 252.18 288.24 275.28ZM84.6002 36.1099C84.5001 39.3501 81.69 41.9903 78.46 41.8902L78.4498 41.8799C75.1998 41.7803 72.5801 38.98 72.6802 35.7403C72.7901 32.4903 75.5699 29.8702 78.8199 29.9703C82.0699 30.0699 84.6998 32.8702 84.6002 36.1099ZM208.86 89.8404C177.92 89.8204 146.99 89.8204 116.05 89.8404C110.69 89.8404 108.61 91.9502 108.59 97.3404C108.56 108.19 108.57 119.05 108.59 129.9C108.59 135.75 110.59 137.73 116.47 137.74C131.81 137.76 147.16 137.74 162.5 137.74C177.97 137.74 193.44 137.76 208.91 137.74C214.26 137.74 216.36 135.62 216.37 130.24C216.4 119.26 216.4 108.28 216.37 97.3101C216.35 91.96 214.25 89.8604 208.86 89.8604V89.8404ZM204.14 125.55H120.75V101.95H204.14V125.55ZM182.308 203.612C187.175 203.61 192.043 203.611 196.91 203.62C201.63 203.63 204.37 205.87 204.37 209.6C204.37 213.33 201.62 215.58 196.91 215.58C185.746 215.59 174.585 215.595 163.425 215.595C157.989 215.595 152.554 215.594 147.119 215.592C140.763 215.589 134.406 215.585 128.05 215.58C123.34 215.57 120.6 213.32 120.6 209.59C120.6 205.86 123.34 203.62 128.06 203.62C132.316 203.613 136.607 203.611 140.894 203.611C144.374 203.612 147.852 203.614 151.307 203.616C155.195 203.618 159.055 203.62 162.859 203.62C166.69 203.62 170.521 203.618 174.351 203.616L182.308 203.612ZM196.9 227.57C173.95 227.55 151 227.55 128.04 227.57C123.32 227.57 120.59 229.82 120.59 233.55C120.59 237.28 123.33 239.52 128.05 239.53C132.217 239.538 136.384 239.54 140.55 239.539C144.034 239.539 147.518 239.537 151.002 239.535C154.827 239.533 158.653 239.53 162.48 239.53C173.96 239.53 185.43 239.55 196.91 239.53C201.62 239.53 204.37 237.27 204.36 233.54C204.36 229.81 201.61 227.57 196.89 227.57H196.9ZM174.209 251.516C181.776 251.511 189.343 251.507 196.91 251.52H196.93C201.64 251.53 204.38 253.77 204.38 257.5C204.37 261.23 201.62 263.48 196.91 263.48C173.95 263.5 151 263.5 128.05 263.48C123.34 263.47 120.6 261.22 120.6 257.49C120.6 253.76 123.34 251.52 128.06 251.52C135.821 251.507 143.694 251.511 151.455 251.516L153.439 251.517C156.607 251.519 159.752 251.52 162.859 251.52L169.029 251.518L174.209 251.516ZM258.4 95.8301C248.61 95.7803 240.47 103.731 240.34 113.481C240.2 123.43 248.26 131.68 258.18 131.74C267.96 131.791 276.11 123.83 276.25 114.08C276.39 104.13 268.33 95.8804 258.41 95.8301H258.4ZM258.35 119.74C255.12 119.78 252.37 117.08 252.33 113.84C252.29 110.6 254.98 107.86 258.22 107.82C261.46 107.78 264.2 110.47 264.24 113.72C264.28 116.95 261.58 119.71 258.34 119.74H258.35ZM324.15 113.87C324.11 123.65 316.06 131.7 306.29 131.74C296.35 131.78 288.2 123.63 288.24 113.69C288.28 103.92 296.33 95.8702 306.1 95.8301C316.05 95.7803 324.19 103.93 324.15 113.87ZM312.15 113.84C312.19 110.6 309.5 107.86 306.26 107.82C303.02 107.791 300.28 110.481 300.24 113.72C300.2 116.95 302.89 119.7 306.13 119.74C309.36 119.771 312.11 117.08 312.15 113.84ZM300.29 167.71C297.04 167.66 294.3 170.33 294.26 173.58C294.21 176.83 296.88 179.57 300.13 179.62C303.36 179.67 306.12 176.98 306.17 173.74C306.22 170.5 303.54 167.75 300.29 167.7V167.71ZM306.54 275.28C306.44 262.22 317.19 251.47 330.29 251.53V251.52C343.22 251.58 353.8 262.25 353.76 275.18C353.72 288.16 343.169 298.69 330.19 298.71C317.19 298.73 306.64 288.28 306.54 275.28ZM318.51 275.16C318.53 281.53 323.78 286.74 330.17 286.73C336.56 286.72 341.8 281.47 341.78 275.11C341.76 268.76 336.46 263.49 330.12 263.5C323.79 263.51 318.49 268.83 318.51 275.16Z" fill="black"/>
</svg>
