<svg width="385" height="313" viewBox="0 0 385 313" fill="none" xmlns="http://www.w3.org/2000/svg">
<path fill-rule="evenodd" clip-rule="evenodd" d="M383.37 258.3C381.58 270.75 376.46 281.68 368.11 291.03V291.01C365.997 293.381 363.644 295.534 361.155 297.813L361.15 297.818C360.342 298.557 359.52 299.31 358.687 300.088C358.31 300.44 357.931 300.797 357.55 301.159C359.479 301.159 361.372 301.173 363.24 301.186H363.313H363.387H363.461H363.533C365.527 301.2 367.491 301.215 369.439 301.211C371.688 301.206 373.916 301.177 376.14 301.099C379.58 300.98 382.22 301.93 384.05 304.88V308.619C382.25 311.599 379.6 312.44 376.16 312.44C253.41 312.369 130.67 312.369 7.93018 312.44C4.49023 312.45 1.83008 311.619 0.0400391 308.619V304.88C1.85986 301.92 4.5 301.06 7.93994 301.099C18.3242 301.212 28.7021 301.19 39.0835 301.167C42.5586 301.159 46.0342 301.152 49.5103 301.15C50.0737 301.15 50.6343 301.114 51.2959 301.065L51.644 301.039C52.1045 301.004 52.6162 300.966 53.21 300.93C49.7803 298.88 47.3501 297.52 43.75 299.42C40.02 301.389 36.1401 299.96 33.1401 297.02C27.1699 291.17 21.2402 285.29 15.4102 279.3C12.02 275.82 11.4702 271.76 13.4399 267.24C13.9399 266.09 13.8901 264.43 13.4902 263.2C12.5698 260.369 11.3398 257.63 10.1001 254.92C9.68018 254.01 8.97021 252.75 8.18018 252.56C3.97998 251.53 1.75 248.579 0.0498047 244.98V214.29C1.93994 211.01 4.06006 208.05 8.12012 207.13C8.50146 207.046 8.87744 206.717 9.20361 206.307C9.50195 205.933 9.7583 205.492 9.93994 205.11C10.0483 204.878 10.1509 204.643 10.249 204.406C10.3149 204.247 10.3794 204.087 10.4424 203.926C10.5322 203.695 10.6196 203.463 10.7056 203.23L10.8096 202.945L10.9663 202.512L10.9897 202.447C11.1104 202.113 11.2319 201.78 11.3579 201.449L11.4814 201.127L11.5513 200.952L11.6309 200.756C11.6641 200.675 11.6978 200.594 11.7324 200.513C11.8018 200.35 11.8735 200.189 11.9478 200.028C12.019 199.874 12.0933 199.721 12.1699 199.57C13.7202 196.52 14.6299 193.77 12.8501 190.24C11.23 187.03 12.54 183.65 14.9199 180.92C15.7192 180.003 16.5703 179.128 17.5625 178.108L18.3979 177.248L18.71 176.925L19.2603 176.349C18.623 175.753 17.9858 175.174 17.354 174.599C16.6318 173.942 15.917 173.292 15.2183 172.632C14.7441 172.184 14.2773 171.732 13.8203 171.27C8.41016 165.77 8.33984 159.92 14.3701 155.25C18.4141 152.119 22.6748 149.264 26.936 146.409L26.9404 146.406L26.9448 146.403L26.9492 146.4L28.5386 145.335C29.2158 144.88 29.8921 144.424 30.5669 143.967C32.126 142.909 33.6772 141.842 35.21 140.75C36.4199 139.889 37.7998 138.22 37.7998 136.92C37.9155 106.831 37.9048 76.7425 37.894 46.6536L37.8901 35.1297C37.8901 34.8636 37.8579 34.6004 37.8154 34.3099L37.7852 34.1077C37.7568 33.9207 37.7271 33.7205 37.7002 33.4998C37.375 33.4388 37.0498 33.3821 36.7246 33.3274L36.1011 33.2244L36.0718 33.22L36.0645 33.2186C35.5479 33.1341 35.0327 33.0496 34.5215 32.9544C33.8906 32.8367 33.2651 32.702 32.6499 32.5296C27.1699 31.0096 23.6401 26.4896 23.1499 20.8694C21.9199 6.66973 26.98 0.669735 41.7402 0.789852C82.9048 1.12432 124.077 1.03253 165.25 0.940243L176.226 0.915829L183.124 0.901669L189.48 0.889461C195.75 0.879696 201.31 2.3797 203.65 8.45977C206.11 14.8397 206.76 21.9398 202.25 27.6995C200.671 29.7137 198.231 31.0516 195.611 32.4891C194.38 33.1639 193.11 33.8607 191.87 34.6595C194.862 44.4275 198.158 55.1951 201.475 66.0301L202.2 68.3997L203.525 72.7244L205.457 79.0169L205.5 79.1561L205.527 79.2454C208.66 89.4446 211.791 99.6414 214.84 109.86C215.55 112.24 216.62 113.119 219.19 113.38C231.985 114.676 244.769 116.099 257.554 117.522C262.025 118.02 266.498 118.517 270.97 119.01C272.2 119.15 273.44 119.2 275.22 119.33V115.13L275.218 102.635L275.217 99.5115C275.215 92.6175 275.214 85.7234 275.22 78.8299C275.23 69.3299 278.95 64.9896 288.81 63.3797C288.832 63.0013 288.86 62.6131 288.889 62.2186C288.953 61.3411 289.02 60.4305 289.02 59.5198C289.024 57.3294 289.032 55.139 289.039 52.9481C289.065 45.2855 289.091 37.6194 288.99 29.9598C288.95 26.5096 290.11 23.9896 292.99 22.0696C293.683 21.6067 294.361 21.1219 295.033 20.6263C295.636 20.1815 296.233 19.7278 296.831 19.2742L296.881 19.2361L296.888 19.2303C297.628 18.6678 298.369 18.1048 299.12 17.5579C299.592 17.2142 300.068 16.8768 300.55 16.5496C303.51 14.5399 306.6 15.0296 308.49 17.6194C310.38 20.2098 310.2 23.8397 307.09 25.4398C300.49 28.8299 299.84 34.1995 300.19 40.6595C300.468 45.8328 300.403 51.0208 300.338 56.2801C300.322 57.5184 300.307 58.7606 300.296 60.0071L300.29 60.7957L300.285 61.6331C300.282 62.1775 300.28 62.723 300.28 63.2698C300.618 63.3504 300.938 63.4236 301.246 63.4944L301.377 63.5247L301.421 63.535L302.003 63.6702C302.15 63.7049 302.294 63.74 302.437 63.7757L302.769 63.8621C302.934 63.9061 303.098 63.952 303.26 63.9998C308.19 65.4695 311.89 68.5399 312.66 73.6395C313.36 78.2698 313.17 83.0794 312.96 87.7996C312.83 90.8196 310.68 92.4896 307.65 92.5096C304.45 92.5296 302.39 90.8196 302.12 87.5994C301.86 84.4998 301.92 81.3694 301.97 78.2498C302 75.9598 301.22 74.9495 298.73 74.8299L298.551 74.8211C292.52 74.5359 289.5 74.3929 287.987 75.8333C286.47 77.2776 286.47 80.3152 286.47 86.3997V120.65L291.861 121.251L295.675 121.678L295.941 121.707L301.97 122.38C301.97 121.456 301.961 120.575 301.952 119.723C301.933 117.917 301.915 116.241 301.99 114.57C302.16 110.659 304.26 108.46 307.62 108.49C310.95 108.53 312.96 110.74 313.17 114.69C313.188 115.037 313.2 115.386 313.207 115.734C313.218 116.325 313.216 116.917 313.211 117.51L313.204 118.352C313.202 118.628 313.2 118.904 313.2 119.18V123.59L322.998 124.672L328.957 125.332L334.868 125.986L341.68 126.74C342.355 126.814 343.031 126.882 343.707 126.95L344.376 127.017L344.748 127.055C345.154 127.097 345.56 127.14 345.965 127.186C346.896 127.291 347.825 127.409 348.75 127.56C357.16 128.909 362.86 135.96 362.89 145.19C362.94 163.03 362.94 180.869 362.86 198.71C362.85 201.119 363.5 202.83 365.27 204.58C375.16 214.35 381.2 226.15 383.33 239.909C383.43 240.557 383.61 241.187 383.791 241.817C383.88 242.13 383.97 242.444 384.05 242.76V256.23C383.82 256.92 383.47 257.59 383.37 258.3ZM217.393 125.24C217.294 125.569 217.23 125.784 217.23 126V126.01L217.212 130.295C217.185 136.599 217.157 142.908 217.19 149.21C217.24 159.33 222.63 164.74 232.69 164.74C270.94 164.76 309.18 164.75 347.43 164.74C347.806 164.74 348.182 164.73 348.563 164.714L348.827 164.702L349.344 164.675C349.626 164.659 349.914 164.641 350.208 164.622C350.66 164.594 351.128 164.565 351.62 164.54C351.62 162.449 351.629 160.394 351.638 158.367C351.659 153.588 351.679 148.957 351.58 144.33C351.51 141.04 349.69 139.02 346.28 138.639L337.465 137.653C331.713 137.009 325.961 136.365 320.21 135.73C296.25 133.09 272.29 130.46 248.33 127.83L239.214 126.828L228.63 125.668L217.61 124.46C217.529 124.783 217.455 125.034 217.393 125.24ZM203.7 112.52C203.44 111.29 203.31 110.43 203.06 109.61L203.05 109.59L200.334 100.725L197.247 90.657C191.659 72.4398 186.071 54.221 180.56 35.9798C179.83 33.5399 178.62 33.0794 176.31 33.0794C156.008 33.1365 135.713 33.1336 115.414 33.1307H114.926L101.32 33.1297C100.899 33.1297 100.478 33.1434 100.061 33.1629C99.8296 33.1736 99.6001 33.1863 99.3716 33.2L98.9648 33.2244L98.9399 33.2259C98.5532 33.2498 98.1724 33.2733 97.8003 33.2899V112.53C99.1621 112.53 100.496 112.516 101.811 112.503C104.753 112.473 107.599 112.445 110.44 112.57C113.71 112.72 115.84 115.13 115.82 118.159C115.8 121.19 113.64 123.42 110.38 123.69C109.38 123.78 108.38 123.72 107.38 123.72H53.3901H49.4902V134.48C86.1201 124.159 119.62 129.4 148.5 154.24C177.43 179.13 187.88 211.46 182.9 249.15H257.43C258.51 225.45 268.53 207 288.78 195.02C309.14 182.97 330.28 183.51 351.39 193.82V175.94H347.1H321.98C313.048 175.94 304.117 175.942 295.185 175.945C274.247 175.951 253.309 175.957 232.37 175.93C216.74 175.909 206.24 165.599 205.94 150.05C205.871 146.422 205.888 142.794 205.905 139.167L205.916 136.668C205.918 135.888 205.92 135.109 205.92 134.33V123.73H201.32H139.45C139.137 123.73 138.823 123.74 138.509 123.749C137.688 123.776 136.868 123.802 136.08 123.65C133.17 123.1 131.38 121.36 131.28 118.31C131.18 115.25 132.89 113.4 135.75 112.69C136.664 112.465 137.648 112.486 138.626 112.507C138.912 112.513 139.197 112.52 139.48 112.52H199.47H203.7ZM49.4102 33.2596V112.22H85.96V33.2596H49.4102ZM38.2998 12.2498C37.0801 12.2596 35.2603 12.5897 34.7402 13.4197L34.75 13.4295C32.2803 17.3694 34.9302 21.9295 39.4702 21.9295H182.7C183.931 21.9295 185.164 21.9451 186.396 21.95C187.788 21.9559 189.181 21.9481 190.57 21.8895C191.49 21.8499 193.15 21.4398 193.19 21.0599C193.47 18.5096 193.7 15.8694 193.26 13.3797C193.15 12.7596 190.51 12.2498 189.03 12.2498C164.03 12.1795 139.04 12.1995 114.04 12.1995H66.8003C57.3003 12.1995 47.7998 12.1595 38.2998 12.2498ZM172.26 221.17C164.29 152.349 85.4102 117.54 29.02 157.8L29.0303 157.82C27.3496 159.022 25.748 160.334 24.2812 161.534C23.6621 162.041 23.0669 162.529 22.5 162.98C23.3267 164.043 24.082 165.013 24.8555 166.006L25.0591 166.267L27.2803 169.119C27.6436 168.725 27.9951 168.339 28.3374 167.961C28.7095 167.551 29.0703 167.149 29.4238 166.757C30.832 165.191 32.1201 163.759 33.4902 162.409C36.2002 159.73 39.96 158.389 43.1001 160.099C46.8208 162.126 49.4795 160.849 52.4893 159.406L52.73 159.29C53.2075 159.059 53.7095 158.872 54.2168 158.695C55.25 158.334 56.3042 158.013 57.21 157.45C58.4199 156.69 59.71 155.619 60.2603 154.369C62.0303 150.369 64.75 147.59 69.21 147.49C78.2002 147.29 87.1899 147.28 96.1802 147.47C100.6 147.56 103.5 150.159 105.15 154.27C105.6 155.389 106.5 156.639 107.53 157.159C110.53 158.67 113.66 159.95 116.83 161.06C117.8 161.4 119.18 161.17 120.17 160.74C124.67 158.76 128.75 159.18 132.27 162.599C138.36 168.51 144.38 174.5 150.28 180.59C153.58 183.98 153.96 188.03 152.09 192.36C151.68 193.29 151.2 194.52 151.49 195.349C152.74 198.86 154.22 202.3 155.75 205.7C156.06 206.38 156.87 207.06 157.59 207.27C163.47 208.98 165.55 213.18 165.52 218.889C165.505 221.289 165.518 223.691 165.531 226.093V226.137C165.552 230.205 165.573 234.274 165.46 238.34C165.392 240.757 165.089 243.165 164.767 245.727L164.598 247.08C164.505 247.83 164.415 248.596 164.33 249.38C164.455 249.38 164.612 249.37 164.792 249.359C165.271 249.33 165.909 249.291 166.52 249.4C170.35 250.06 171.96 248.48 171.98 244.65C171.986 243.552 172.013 242.452 172.053 241.352C172.112 239.699 172.201 238.042 172.29 236.387V236.383V236.378V236.374V236.369V236.365C172.564 231.265 172.838 226.169 172.26 221.17ZM94.3501 301.17C95.5 296.06 98.5303 293.35 103.16 292.03H103.14C105.89 291.25 108.63 290.21 111.11 288.82C115.78 286.19 120.35 285.18 125.12 288.45C125.839 287.729 126.556 287.013 127.27 286.302L128.835 284.742C132.584 281.008 136.246 277.36 139.8 273.61C140.47 272.9 140.7 271.15 140.33 270.2C139.02 266.83 139.19 263.71 140.7 260.45C142.43 256.73 144.02 252.94 145.42 249.08C146.65 245.69 148.69 243.31 152.08 241.97C152.93 241.63 154.11 240.619 154.13 239.9C154.247 234.321 154.236 228.735 154.226 223.116V223.107V223.098V223.09V223.081C154.223 221.47 154.22 219.856 154.22 218.24C148.88 217.17 146.32 213.81 144.88 209.17C143.96 206.21 142.8 203.27 141.33 200.55C139.01 196.24 138.59 192.079 141.53 187.47C140.279 186.233 139.044 185.008 137.821 183.791L137.775 183.747C134.016 180.015 130.355 176.38 126.61 172.83C125.93 172.2 124.31 171.82 123.51 172.18C119.76 173.86 116.29 173.48 112.73 171.659C110.18 170.36 107.57 169.05 104.84 168.26C99.6099 166.75 95.3301 164.409 94.3198 158.5C92.6006 158.5 90.9014 158.495 89.2178 158.491C83.8193 158.476 78.5791 158.462 73.3501 158.599C72.3799 158.63 70.9902 159.76 70.5801 160.71C69.1499 164.05 66.79 166.08 63.3999 167.3C59.54 168.69 55.75 170.31 52.0103 172.02C48.75 173.51 45.5898 173.7 42.25 172.3C41.4302 171.96 39.9102 171.909 39.3799 172.42C37.5049 174.216 35.6465 176.03 33.7974 177.854C30.5083 181.098 27.2471 184.375 23.9702 187.639C26.9302 191.98 26.5698 196.04 24.29 200.24C22.9302 202.75 21.7603 205.409 20.9502 208.139C19.4502 213.23 17.0103 217.27 11.29 218.27C11.29 220.02 11.2852 221.753 11.2803 223.472C11.2656 228.784 11.2515 233.965 11.3799 239.139C11.3999 240.11 12.4502 241.55 13.3701 241.93C16.75 243.32 18.8501 245.68 20.0703 249.03C20.2705 249.58 20.4673 250.133 20.6641 250.686L20.7168 250.836C21.6304 253.409 22.5464 255.99 23.8101 258.38C26.25 262.98 27.3501 267.43 24.2002 271.73C26.4556 273.977 28.6719 276.187 30.877 278.386L33.3257 280.827C35.793 283.288 38.2583 285.747 40.7603 288.24C45.0103 285.3 49.3599 286.13 53.8799 288.53C56.4434 289.894 59.2173 290.872 61.9805 291.847C62.3975 291.994 62.8145 292.141 63.23 292.29C66.7202 293.54 69.3003 295.57 70.6201 299.159C70.9199 299.98 72.0103 301.07 72.75 301.08C75.9048 301.146 79.061 301.171 82.2173 301.179C84.6421 301.184 87.0669 301.18 89.4902 301.176H89.5518C91.1519 301.173 92.7515 301.17 94.3501 301.17ZM112.972 300.614L112.62 300.83H284.08C268.73 287.84 264.08 280.54 258.49 260.83C257.85 260.73 257.49 260.619 257.12 260.619C247.717 260.619 238.314 260.618 228.912 260.617L223.271 260.615L199.503 260.611H183.017C173.868 260.612 164.719 260.614 155.57 260.619C152.32 260.619 150.42 264.02 151.91 267.09C153.98 271.34 153.76 275.46 150.48 278.869C144.35 285.26 138.04 291.48 131.65 297.619C128.81 300.34 124.97 301.28 121.59 299.4C118.149 297.487 115.923 298.832 113.339 300.392L112.972 300.614ZM268.81 249.09C268.61 277.53 292.06 301.1 320.61 301.15L320.6 301.159C349.33 301.21 372.72 278.07 372.79 249.52C372.87 220.889 349.72 197.599 321.03 197.43C292.45 197.26 269.02 220.44 268.81 249.09ZM208.59 233.48C208.53 237.26 206.35 239.68 203.14 239.75C199.9 239.82 197.44 237.43 197.4 233.72C197.3 224.77 197.3 215.81 197.4 206.86C197.44 203.11 199.79 200.78 203.08 200.81C206.37 200.84 208.53 203.18 208.59 206.99C208.646 210.126 208.634 213.258 208.621 216.392C208.616 217.734 208.61 219.076 208.61 220.42C208.61 221.702 208.615 222.983 208.619 224.264C208.629 227.338 208.64 230.409 208.59 233.48ZM236.96 233.44C237.02 237.28 239.12 239.659 242.36 239.749C245.61 239.84 248.09 237.49 248.14 233.76C248.26 224.809 248.25 215.86 248.14 206.909C248.1 203.11 245.77 200.809 242.48 200.829C239.18 200.84 237.03 203.15 236.96 206.97C236.904 210.014 236.917 213.059 236.929 216.104C236.935 217.409 236.94 218.715 236.94 220.019C236.94 224.499 236.89 228.97 236.96 233.45V233.44ZM228.34 233.359C228.25 237.399 225.98 239.84 222.63 239.749H222.64C219.42 239.669 217.22 237.329 217.18 233.459C217.081 224.63 217.07 215.809 217.18 206.99C217.23 203.07 219.4 200.849 222.72 200.82C226.05 200.789 228.22 202.999 228.33 206.889C228.414 210.02 228.395 213.156 228.376 216.29L228.365 218.355C228.362 219.007 228.36 219.659 228.36 220.309L228.362 221.525L228.369 223.15L228.375 224.316C228.393 227.33 228.41 230.345 228.34 233.359ZM82.4204 183.59C56.8901 183.73 36.2505 204.47 36.3301 229.92C36.4102 255.55 57.4204 276.42 82.9302 276.21C108.75 276 129.24 255.32 129.11 229.6C128.98 203.88 108.25 183.46 82.4204 183.59ZM82.9102 264.99C63.6001 265.14 47.5601 249.17 47.5703 229.82C47.5801 210.4 63.4204 194.73 82.9805 194.81C102.36 194.89 117.87 210.48 117.86 229.89C117.86 249.21 102.291 264.84 82.9102 264.99ZM351.56 241.57C348.91 242.85 346.41 242.18 344.61 239.73V239.71C343.95 238.81 343.52 237.75 342.96 236.78C337.16 226.69 325.67 221.85 314.41 224.74C303.52 227.53 295.72 237.29 295.47 248.42C295.21 260.19 302.37 270.2 313.48 273.56C324.59 276.93 336.23 272.55 342.46 262.65C342.515 262.563 342.569 262.475 342.622 262.387L342.722 262.217C342.814 262.059 342.903 261.9 342.992 261.741L343.184 261.403C343.317 261.171 343.453 260.941 343.6 260.72C345.58 257.7 348.53 256.82 351.3 258.4C354.09 259.98 354.99 263.01 353.35 266.17C348.55 275.38 341.1 281.55 331.15 284.45C307.6 291.33 284.14 273.64 284.21 249.18C284.25 232.48 295.58 217.93 311.76 213.81C327.79 209.72 344.65 216.91 352.78 231.33L352.87 231.49L352.873 231.495C353.123 231.94 353.372 232.387 353.606 232.839C353.917 233.442 354.199 234.055 354.41 234.69C355.44 237.76 354.37 240.21 351.56 241.57ZM320.83 229.8C309.96 229.8 301.32 238.37 301.26 249.21C301.2 259.96 309.9 268.8 320.64 268.9C331.47 269 340.53 260.01 340.48 249.21C340.43 238.49 331.63 229.8 320.83 229.79V229.8ZM320.92 257.66C316.4 257.73 312.59 253.97 312.54 249.4C312.49 244.72 316.05 241.09 320.73 241.05C325.33 241.01 329.15 244.69 329.2 249.22C329.25 253.69 325.41 257.6 320.92 257.66ZM54.6401 229.94C54.6201 214.21 67.3003 201.55 82.96 201.67H82.9502C98.4199 201.78 111.04 214.52 110.98 229.95C110.93 245.48 98.3604 257.92 82.75 257.92C67.0903 257.909 54.6699 245.55 54.6401 229.94ZM65.8901 229.559C65.7603 239.03 72.9902 246.53 82.3901 246.69C91.8203 246.849 99.4702 239.63 99.7402 230.309C100.01 220.95 92.3599 213.01 82.96 212.889C73.6802 212.77 66.02 220.26 65.8901 229.559Z" fill="black"/>
</svg>
