<svg width="361" height="293" viewBox="0 0 361 293" fill="none" xmlns="http://www.w3.org/2000/svg">
<path fill-rule="evenodd" clip-rule="evenodd" d="M350.497 141.546C352.469 145.183 354.44 148.821 356.41 152.46L356.42 152.47C359.09 157.4 360.36 162.62 360.35 168.24C360.32 183.204 360.322 198.172 360.325 213.141V213.87L360.326 224.027C360.326 230.378 360.325 236.729 360.32 243.08C360.31 255.03 352.88 262.41 340.92 262.45C338.467 262.457 336.013 262.462 333.56 262.468L328.027 262.481C324.965 262.489 321.902 262.497 318.84 262.51C318.772 262.51 318.705 262.52 318.633 262.537C318.541 262.558 318.44 262.592 318.318 262.634L318.307 262.637C318.191 262.676 318.055 262.722 317.89 262.77C315.87 272.41 310.99 280.41 302.68 286.11C296.09 290.62 288.75 292.7 280.77 292.32C266.38 291.64 251.13 281.94 247.02 262.66H96.4599C90.5998 282.07 77.9599 292.5 60.55 292.37C43.56 292.24 30.74 281.45 25.31 262.44C24.1116 262.44 22.9035 262.445 21.6889 262.45H21.6692C20.1599 262.455 18.6406 262.462 17.1167 262.459C15.9131 262.456 14.7065 262.449 13.5 262.43C6.08983 262.32 1.07005 257.34 1.04002 249.92C0.989972 234.58 1.00999 219.23 1.04002 203.89C1.05003 198.73 3.1699 196.61 8.30003 196.58C9.89427 196.572 11.4885 196.567 13.0837 196.561H13.1409H13.1467C19.4753 196.54 25.8196 196.519 32.24 196.32C26.8999 194.19 22.8398 190.84 20.3899 185.62C20.1098 185.02 18.78 184.67 17.9199 184.64C16.0796 184.58 14.2361 184.589 12.3916 184.598L12.1982 184.599C11.4873 184.602 10.7761 184.605 10.0649 184.603C9.31663 184.602 8.56834 184.596 7.82005 184.58C3.36985 184.48 1.08006 182.3 1.05003 177.91C0.969952 168.18 0.939923 158.45 1.05003 148.72C1.12986 141.74 6.17991 136.85 13.2099 136.7C13.8017 136.688 14.394 136.674 14.9866 136.659H14.9902C17.8916 136.588 20.7995 136.517 23.6799 136.75C26.52 136.98 27.8301 135.81 28.99 133.35C30.987 129.115 33.1013 124.935 35.2156 120.756C36.7007 117.82 38.1858 114.885 39.6299 111.93C43.3598 104.3 49.3899 100.68 57.8799 100.73C64.2773 100.765 70.6748 100.759 77.0722 100.753C87.0149 100.744 96.9575 100.734 106.9 100.88C109.38 100.92 112.3 102.07 114.22 103.66C126.3 113.7 138.21 123.96 150.06 134.28C152.09 136.04 154.08 137.09 156.75 136.68C162.69 135.77 166.77 138.43 171.25 142.32C178.71 148.79 182.16 156.01 180.76 165.8C180.402 168.31 180.492 170.881 180.582 173.454C180.627 174.768 180.673 176.082 180.66 177.39C180.6 182.33 178.48 184.48 173.64 184.59L173.276 184.601C172.928 184.612 172.577 184.623 172.228 184.622C171.95 184.621 171.674 184.613 171.4 184.59C165.9 184.18 160.92 183.99 157.85 190.37C156.943 192.246 154.767 193.508 152.647 194.738L152.058 195.08C151.798 195.233 151.54 195.386 151.288 195.54C150.826 195.823 150.381 196.111 149.97 196.41H192.49C192.55 195.18 192.64 194.1 192.64 193.01C192.64 187.424 192.638 181.837 192.637 176.251V176.031C192.632 155.621 192.627 135.21 192.69 114.8C192.69 112.43 192.2 111.05 189.84 109.95C151.437 92.1361 113.063 74.2567 74.6875 56.3764L74.6186 56.3441L52.4263 46.0043L40.4599 40.4301C39.8135 40.1229 39.1455 39.8632 38.3476 39.5521C37.9238 39.3871 37.4634 39.2079 36.9499 38.9999C36.9499 45.7001 36.8301 52.0102 37.0801 58.31C37.1199 59.3002 38.73 60.4501 39.8498 61.1601C46.1999 65.2201 49.49 70.9599 48.78 78.4599C48.0801 85.7699 44.07 91.0199 37.1199 93.58C30.01 96.2001 23.5898 94.5702 18.1999 89.3202C14.8498 86.06 13.1799 81.9701 13.06 77.0302H24.6399C24.6667 77.0731 24.697 77.1181 24.7287 77.1649C24.8159 77.2938 24.914 77.4389 24.98 77.6C26.55 81.5702 29.02 83.3998 32.1098 82.64C35.1098 81.9101 36.8398 79.9198 36.9099 76.7699C36.98 73.4701 34.8699 71.5399 30.5801 70.7802C26.8301 70.1103 25.04 68.0702 25.01 64.0502C24.9873 60.5883 24.9919 57.1264 24.9966 53.6649C25.0041 48.0175 25.0117 42.372 24.8999 36.7299C24.8821 35.7719 24.418 34.8314 23.9482 33.8793C23.6284 33.2313 23.3061 32.578 23.1199 31.9101C23.0698 31.7323 23.0146 31.5512 22.9558 31.3676C22.8379 30.9994 22.7058 30.621 22.5722 30.2392C21.9753 28.5312 21.353 26.7509 21.8699 25.4701C24.8799 17.9599 28.3999 10.6498 31.9499 3.38027C33.6999 -0.219826 36.8598 -0.879983 41.1999 1.13027C57.6999 8.78017 74.1799 16.4599 90.6599 24.14C101.585 29.2313 112.51 34.3246 123.434 39.4179C157.998 55.5326 192.562 71.6474 227.15 87.7099C228.76 88.4599 230.73 88.7299 232.54 88.7299C258.11 88.8002 283.68 88.87 309.25 88.7299C317.88 88.6898 323.95 92.2299 328.01 99.83C335.443 113.769 342.97 127.658 350.497 141.546ZM138.78 178.62C138.79 181.85 141.45 184.53 144.66 184.57C147.86 184.61 150.6 181.98 150.7 178.77C150.81 175.43 147.99 172.58 144.63 172.64C141.42 172.7 138.77 175.41 138.78 178.62ZM40.6599 196.36H141.03C134.81 194.28 130.97 191.03 128.41 186.17C127.99 185.37 126.53 184.67 125.55 184.67C102.38 184.59 79.22 184.59 56.05 184.66C55.1399 184.66 53.75 185.21 53.3999 185.91C50.8799 190.94 46.9599 194.27 40.6599 196.36ZM99.0613 112.744C97.5315 112.742 95.9944 112.745 94.445 112.747C93.3071 112.748 92.1628 112.75 91.01 112.75L91 112.76V136.41H134.21L131.984 134.501L131.915 134.441C123.551 127.267 115.593 120.44 107.61 113.64C107.08 113.19 106.3 112.79 105.63 112.79C103.445 112.758 101.261 112.747 99.0613 112.744ZM56.6499 112.88C54.8301 112.96 52.25 114.16 51.4199 115.64C48.6521 120.544 46.1538 125.6 43.5969 130.774C42.6709 132.647 41.737 134.537 40.78 136.44H78.5801V112.75C76.5483 112.75 74.5378 112.737 72.5432 112.724C67.1648 112.688 61.9021 112.654 56.6499 112.88ZM13.1899 172.34C17.23 173.13 19.8598 172.67 22.3799 168.61V168.59C29.3999 157.32 45.8598 158.14 52.4099 169.8C53.6399 171.98 54.8398 172.68 57.25 172.67C79.6899 172.58 102.12 172.59 124.56 172.67C126.79 172.68 127.98 172.13 129.15 170.03C135.68 158.28 152.07 157.21 159.16 168.39C161.66 172.32 164.18 173.2 168.67 172.32C168.594 170.651 168.666 168.946 168.738 167.248C168.999 161.072 169.257 154.975 162.41 150.92C160.73 149.92 158.75 148.77 156.91 148.77C118.282 148.67 79.6548 148.674 41.0273 148.678H40.4861L17.05 148.68H13.1899V172.34ZM37.1999 172.64C34.01 172.49 31.1799 175.06 30.99 178.26C30.79 181.61 33.52 184.54 36.8799 184.57C40.0801 184.6 42.81 181.97 42.9099 178.76C43.01 175.57 40.4099 172.78 37.1999 172.64ZM36.9599 256.33C36.9099 269.58 47.6699 280.41 60.8699 280.41C74.1098 280.4 84.8498 269.64 84.8498 256.39C84.8498 243.19 74.01 232.46 60.75 232.51C47.6999 232.56 37 243.27 36.9599 256.33ZM96.51 250.2H216.4V208.79H13.27V250.29H25.3999C30.22 228.8 47.27 220.83 59.8598 220.55C77.51 220.16 89.97 230.23 96.51 250.2ZM204.84 196.42H216.6V196.41L216.6 187.289V187.276V187.263C216.601 166.14 216.602 145.25 216.55 124.36C216.55 123.55 215.98 122.33 215.33 122C211.95 120.27 208.45 118.77 204.84 117.12V196.42ZM216.548 106.1C216.494 103.929 216.446 101.975 216.67 100.05C217.04 96.8603 215.56 95.5199 212.88 94.2802C183.449 80.6395 154.045 66.9311 124.64 53.2221L106.21 44.6303C84.32 34.4301 62.4399 24.2299 40.1999 13.8603C38.7659 16.9955 37.4629 19.8559 36.1472 22.7426L36.0549 22.9462L35.945 23.1879L35.22 24.7802L95.8342 53.0312C136.076 71.7865 176.251 90.5111 216.6 109.32C216.6 108.186 216.573 107.119 216.548 106.1ZM265.432 100.782C261.228 100.786 257.015 100.79 252.79 100.79H252.78V154.47H343.28C343.28 154.423 343.281 154.378 343.283 154.334C343.287 154.234 343.295 154.143 343.302 154.06C343.308 153.997 343.312 153.939 343.315 153.885C343.321 153.761 343.314 153.661 343.27 153.58C341.772 150.793 340.276 148.005 338.78 145.217L338.744 145.15C331.423 131.508 324.104 117.871 316.6 104.33C315.69 102.68 313.13 100.96 311.32 100.94C296.069 100.751 280.812 100.767 265.432 100.782ZM258.52 256.4C258.5 269.49 269.1 280.28 282.12 280.41V280.42C295.39 280.55 306.28 269.92 306.41 256.71C306.54 243.48 295.85 232.6 282.62 232.52C269.38 232.44 258.54 243.18 258.52 256.4ZM342.21 250.43C345.94 250.37 348.12 248.02 348.32 244.26C348.358 243.571 348.37 242.881 348.37 242.168C348.371 241.601 348.364 241.021 348.356 240.416L348.345 239.462C348.342 239.111 348.34 238.751 348.34 238.38H330.56V226.48H348.08V214.54C340.59 214.54 333.37 214.55 326.15 214.54C317.08 214.53 312.44 209.82 312.42 200.66C312.417 199.783 312.405 198.905 312.393 198.027C312.36 195.662 312.327 193.295 312.48 190.94C312.61 189 312.97 186.93 313.82 185.21C316.08 180.64 320.02 178.61 325.08 178.62C330.205 178.633 335.331 178.629 340.435 178.624L344.469 178.621L348.05 178.62V166.64H343.28H248.63C242.5 166.64 240.57 164.72 240.57 158.61V105.11V101.01H228.86V250.31H246.93C252.43 231.29 265.31 220.6 282.47 220.54C295.89 220.5 313.05 228.63 318.04 250.47C320.407 250.47 322.752 250.477 325.082 250.483H325.127H325.171C330.912 250.499 336.561 250.516 342.21 250.43ZM348.18 202.37V190.85H324.7V202.37H348.18ZM264.26 190.38H240.73V178.88H264.26V190.38ZM55.1299 262.3H66.6199V250.65H55.1299V262.3ZM288.24 262.26H276.77V250.72H288.24V262.26Z" fill="black"/>
</svg>
