<svg width="360" height="265" viewBox="0 0 360 265" fill="none" xmlns="http://www.w3.org/2000/svg">
<path fill-rule="evenodd" clip-rule="evenodd" d="M330.03 1.02006C346.62 1.13969 359.27 14.5498 359.3 31.6597V31.6397C359.343 58.3687 359.335 85.0972 359.326 111.826L359.321 132.366L359.32 143.9L359.322 173.338C359.324 192.962 359.327 212.584 359.32 232.21C359.31 251.9 346.76 264.42 327.03 264.42C325.018 264.42 323.006 264.418 320.993 264.414C318.532 264.409 316.072 264.4 313.611 264.39L310.049 264.374L303.39 264.341C285.322 264.246 267.256 264.151 249.2 264.59C232.78 264.99 217.12 255.33 215.36 234.75C157.93 281.36 77.29 270.62 32.9102 219.73C-10.8999 169.48 -10.96 96.0801 32.6702 45.8799C77.1001 -5.24996 157.91 -16.04 215.27 30.5401C215.413 29.7452 215.539 28.9595 215.664 28.1831C215.93 26.5171 216.191 24.8926 216.6 23.3101C219.9 10.5098 231.47 1.09965 244.72 1.02006C273.15 0.84965 301.59 0.819865 330.03 1.02006ZM211.914 204.163L215.35 208.2L215.36 208.21V141.95C209.8 186.25 172.39 218.18 127.82 216.47C85.2102 214.83 49.52 179.14 48 136.66C46.3701 91.0498 78.5601 53.8101 124.77 49.2598C167.71 45.0298 209.26 75.69 215.3 123.66V58.19C215.095 58.0401 214.89 57.8877 214.685 57.7349C214.48 57.5821 214.275 57.4297 214.07 57.2798C212.14 59.8599 210.22 62.4497 208.44 64.8301C205.24 61.73 202.58 59.1499 199.52 56.1797L202.064 53.8799L205.34 50.9224L205.632 50.6592L205.983 50.3428L206.117 50.2212C208.256 48.2906 210.444 46.3155 212.74 44.2398C206.98 39.7998 202.01 35.96 196.86 31.9898C195.3 34.6587 193.82 37.1954 192.369 39.6807L192.156 40.0464L189.566 44.4844L187.81 47.4898L184.468 45.5367C182.138 44.1744 179.874 42.8506 177.54 41.4898C179.952 37.2569 182.237 33.2598 184.623 29.0865L184.842 28.7037L185.042 28.3536L185.37 27.7793L186.45 25.8897L185.836 25.6343L184.859 25.2286C179.303 22.9205 174.091 20.7549 168.62 18.4898C166.94 24.5601 165.43 30.0401 163.83 35.8496L157.986 34.271C156.141 33.7725 154.302 33.2745 152.41 32.7598C153.188 29.7183 153.943 26.7857 154.704 23.8306C155.419 21.0533 156.139 18.2564 156.89 15.3301C152.339 14.7876 148.042 14.2784 143.67 13.7598L137.6 13.0401V30.6797H125.71V13.0298C119.23 13.8199 113.21 14.5699 106.67 15.3697L107.962 20.4844L111.08 32.8399C107.07 33.8897 103.5 34.8199 99.7002 35.8199L98.5503 31.7173L97.9009 29.4024L97.3159 27.3164L97.2625 27.1275L96.1824 23.2788L94.8401 18.4898L87.772 21.5166L87.4981 21.6338C84.0322 23.1177 80.6416 24.5699 77.1702 26.0601L80.1177 31.2246L85.7974 41.1822L85.99 41.5201C82.4702 43.5699 79.2002 45.48 75.7002 47.5098L72.4998 42.0108L72.1475 41.4058L69.0769 36.1304L66.6802 32.0098L59.624 37.4893L50.6001 44.5L55.6716 49.2608L56.4297 49.9727L58.2793 51.709L63.3001 56.42C60.6702 59.17 58.1001 61.8399 55.26 64.8101C52.5754 61.9893 49.9045 59.1734 47.1221 56.2398L43.1001 52L37.3318 59.5528L31.1401 67.6597L35.3877 70.1333L46.5801 76.6499C44.4302 80.3199 42.51 83.5899 40.5601 86.92L29.3596 80.5479L25.04 78.0899L20.6807 88.4703L17.5901 95.8301C23.6401 97.5098 29.2102 99.0601 34.9402 100.65C33.8401 104.67 32.8701 108.23 31.8401 112.02L31.0315 111.813L28.3269 111.117L14.4302 107.55C13.9595 111.494 13.5066 115.25 13.0503 119.031L12.1101 126.83H29.78V138.72H12.0901C12.9102 145.27 13.6802 151.35 14.5 157.84C20.7002 156.24 26.1802 154.83 31.8801 153.37L32.3599 155.169L33.3311 158.828L33.603 159.854L34.332 162.603L34.9002 164.74L31.6707 165.652L25.5171 167.391L21.2034 168.608L17.5801 169.63C18.9612 172.856 20.2813 175.952 21.5898 179.021C22.7637 181.773 23.9285 184.505 25.1201 187.29C30.6201 184.17 35.4602 181.43 40.6001 178.52L44.9009 185.923L46.5801 188.81C44.457 190.041 42.3794 191.244 40.2974 192.449L36.1411 194.856L33.323 196.489L31.1001 197.78L33.2573 200.582C36.5083 204.804 39.7268 208.984 43.53 213.91C47.73 209.12 51.54 204.77 55.03 200.79C58.2102 203.82 60.8901 206.38 64.0501 209.39C59.8101 213.24 55.5901 217.06 50.9602 221.26C55.1016 224.424 58.8655 227.301 62.5852 230.148L66.73 233.32L71.1672 225.706C72.6914 223.089 74.1892 220.519 75.74 217.86C77.8052 219.067 79.7461 220.205 81.6455 221.319L86.01 223.88L83.241 228.733C81.2273 232.262 79.2627 235.705 77.1602 239.4L82.4702 241.624L89.9905 244.778L94.9002 246.84C95.7896 243.647 96.6455 240.584 97.4915 237.555L97.8264 236.356L97.9648 235.859C98.5566 233.742 99.1458 231.632 99.74 229.5L103.857 230.627L106.653 231.391L111.11 232.61L110.243 235.99L108.412 243.133C107.837 245.377 107.254 247.655 106.65 250.02C113.25 250.81 119.34 251.54 125.91 252.33V234.67H137.81V252.37L156.92 249.98C155.919 246.107 154.992 242.509 154.079 238.961L152.44 232.6L156.775 231.436C159.118 230.806 161.415 230.189 163.84 229.54L166.636 239.592L167.476 242.617L168.67 246.92C174.79 244.34 180.46 241.95 186.42 239.44C184.882 236.725 183.417 234.144 181.974 231.604L177.56 223.84L180.833 221.955L187.86 217.91C189.943 221.504 191.945 224.948 194.007 228.494L196.87 233.42L201.113 230.138L204.917 227.192C207.436 225.24 210.031 223.227 212.85 221.04L209.943 218.388C206.383 215.138 203.063 212.108 199.93 209.26L204.42 204.572L208.57 200.24L211.914 204.163ZM131.94 204.54C171.08 204.57 203.46 172.36 203.62 133.25C203.78 93.6397 171.81 60.9898 132.71 60.8301C92.26 60.6597 60.01 92.5699 59.9202 132.86C59.8301 172.28 92.2202 204.51 131.94 204.54ZM271.403 137.339L270.606 136.948C270.24 136.768 269.871 136.585 269.5 136.4L269.48 136.41C269.48 138.465 269.478 140.493 269.475 142.499C269.471 145.573 269.468 148.597 269.473 151.591C269.48 155.552 269.502 159.461 269.56 163.37C269.57 164.2 270.52 165.33 271.33 165.76C276.05 168.27 280.83 170.69 285.67 172.96C286.63 173.41 288.13 173.47 289.07 173.04C293.92 170.78 298.71 168.38 303.42 165.85C304.31 165.37 305.3 164.08 305.32 163.15C305.437 156.414 305.427 149.671 305.416 142.643C305.413 140.605 305.41 138.543 305.41 136.45C300.88 138.71 296.7 140.58 292.75 142.84C289.14 144.9 285.9 145.01 282.25 142.86C279.547 141.267 276.706 139.898 273.688 138.444L273.667 138.434C272.924 138.075 272.169 137.712 271.403 137.339ZM273.663 96.5464C272.993 96.2193 272.316 95.8882 271.631 95.5518C270.929 95.2076 270.219 94.8575 269.5 94.5L269.5 96.0879L269.495 100.592V100.606V100.621V100.636V100.65C269.487 107.784 269.479 114.64 269.58 121.49C269.59 122.31 270.58 123.41 271.4 123.85C276.12 126.35 280.9 128.77 285.74 131.04C286.69 131.48 288.2 131.52 289.14 131.08C293.99 128.82 298.76 126.41 303.49 123.9C304.32 123.47 305.32 122.35 305.33 121.54C305.431 114.676 305.423 107.806 305.415 100.654V100.638C305.413 98.626 305.41 96.5923 305.41 94.5298C303.944 95.2583 302.516 95.9556 301.119 96.6382C297.837 98.2413 294.724 99.7618 291.68 101.41C288.76 103 286.14 102.98 283.22 101.39C280.144 99.7129 276.992 98.1724 273.663 96.5464ZM305.39 12.9898H269.52L269.53 13C269.53 14.4297 269.527 15.8584 269.524 17.2862C269.514 22.2798 269.503 27.2627 269.62 32.2398C269.63 32.8999 270.77 33.73 271.57 34.1397C273.084 34.9141 274.595 35.835 276.108 36.7574C279.793 39.003 283.492 41.2569 287.27 41.42C290.6 41.5586 294.031 39.4927 297.463 37.4268C298.375 36.8785 299.286 36.3301 300.195 35.8228C300.798 35.4864 301.399 35.168 302 34.8799C302.164 34.8028 302.329 34.7295 302.495 34.6563L302.506 34.6519L302.511 34.649L302.514 34.6475L302.862 34.4922C303.096 34.3853 303.327 34.2735 303.547 34.1475C303.7 34.0596 303.849 33.9649 303.99 33.8599L304.025 33.8326C304.564 33.4136 305.33 32.8184 305.33 32.2901C305.354 30.6197 305.369 28.9488 305.379 27.2764L305.388 25.2627L305.392 23.4937C305.396 21.293 305.395 19.0889 305.393 16.8799V16.8755V16.8711L305.39 12.9898ZM273.941 48.7701C273.259 48.4366 272.571 48.0996 271.876 47.7579L270.849 47.2515L270.183 46.9209L269.5 46.5801L269.499 49.5005L269.496 53.587C269.487 62.2779 269.479 70.6416 269.59 79C269.6 80.0401 270.61 81.4898 271.56 82.0098C276.14 84.5098 280.83 86.8496 285.57 89.0298C286.62 89.5098 288.27 89.5699 289.3 89.0899C294.04 86.9097 298.72 84.5601 303.3 82.0498C304.27 81.5201 305.33 80.0996 305.34 79.0801C305.456 70.8658 305.447 62.6519 305.436 54.1109L305.432 50.1734L305.43 46.6099C303.913 47.3672 302.447 48.0845 301.022 48.7823C297.817 50.3511 294.815 51.8208 291.88 53.42C288.85 55.0699 286.11 55.0996 283.07 53.42C281.582 52.5982 280.074 51.8145 278.541 51.042C278.138 50.8389 277.734 50.6368 277.327 50.4346L276.118 49.837L274.987 49.2813L273.98 48.7891L273.941 48.7701ZM257.32 252.929V13.2998C241.81 11.1099 231.71 15.21 229.22 24.8999H239.32V37H227.75V48.8999H239.26V60.9297H227.8V72.96H239.34V84.8599H227.86V96.8897H239.29V108.92H227.79V120.82H239.37V132.72H227.84V144.75H239.31V156.78H227.76V168.68H239.26V180.71H227.82V192.74H239.34V204.64H227.88V216.67H239.29V228.57H227.99C226.34 239.65 230.24 248.4 239.12 250.98C243.105 252.14 247.366 252.351 251.627 252.562H251.633L251.666 252.564C253.559 252.657 255.451 252.751 257.32 252.929ZM269.8 252.24H305.24V220.37C300.36 222.8 295.79 224.98 291.31 227.34C288.64 228.75 286.19 228.7 283.52 227.29C280.329 225.598 277.087 224.002 273.79 222.38C272.469 221.731 271.139 221.076 269.8 220.41V252.24ZM279.84 212.35C285.54 214.73 289.54 214.68 295.21 212.31L295.2 212.3C303.4 208.87 306.94 204.33 305.57 195.36C305.009 191.674 305.145 187.886 305.287 183.928L305.288 183.897C305.312 183.24 305.336 182.578 305.356 181.911L305.383 180.994L305.393 180.561C305.401 180.19 305.408 179.818 305.413 179.444L305.419 178.79L305.42 178.32C303.903 179.085 302.446 179.802 301.035 180.496C298.019 181.981 295.215 183.361 292.49 184.88C289.14 186.75 286.09 186.94 282.66 184.98C281.004 184.032 279.309 183.149 277.559 182.275C276.381 181.686 275.177 181.101 273.943 180.502L273.843 180.453L273.788 180.427L273.621 180.345C272.286 179.696 270.914 179.028 269.5 178.32C269.5 180.268 269.566 182.148 269.63 183.975C269.767 187.887 269.896 191.555 269.35 195.12C267.97 204.18 271.49 208.87 279.84 212.35ZM317.56 13.3599V252.15C338.9 254.47 350 245.52 346.83 228.38H335.55V216.48H347.07V204.45H335.6V192.42H347.14V180.52H335.65V168.49H347.09V156.46H335.58V144.56H347.04V132.53H335.64V120.63H347.12V108.6H335.56V96.6997H347.07V84.67H335.62V72.6397H347.15V60.7398H335.67V48.71H347.09V36.6797H335.59V24.8301H345.77C341.54 12.8599 331.46 11.8897 317.56 13.3599ZM107.82 132.56C107.88 119.34 118.74 108.629 131.98 108.74C145.2 108.85 155.82 119.71 155.71 133C155.6 146.01 144.8 156.66 131.73 156.64C118.5 156.609 107.76 145.8 107.82 132.56ZM119.8 132.74C119.83 139.399 125.41 144.8 132.1 144.64C138.57 144.49 143.87 138.919 143.72 132.439C143.57 125.899 138.15 120.649 131.61 120.72C125.1 120.79 119.77 126.22 119.8 132.74ZM131.62 96.7398C138.28 96.8199 143.8 91.2998 143.73 84.6397C143.66 78.1397 138.23 72.7896 131.72 72.8096C125.18 72.8296 119.83 78.1797 119.8 84.7095C119.77 91.2095 125.12 96.6597 131.61 96.7398H131.62ZM119.8 180.55C119.82 174.01 125.15 168.66 131.69 168.62C138.2 168.58 143.65 173.92 143.73 180.42C143.82 187.08 138.31 192.61 131.65 192.55C125.15 192.49 119.79 187.05 119.8 180.55ZM90.4402 96.7398C83.73 96.6299 78.29 101.96 78.26 108.66C78.24 115.16 83.52 120.57 90.01 120.68C96.6802 120.8 102.19 115.4 102.2 108.74C102.2 102.23 96.9302 96.8501 90.4402 96.7398ZM78.3701 156.41C78.48 149.85 83.9002 144.55 90.3901 144.669L90.3801 144.66C96.98 144.79 102.2 150.1 102.17 156.669C102.15 163.38 96.6201 168.76 89.9302 168.59C83.3901 168.419 78.27 163.03 78.3701 156.41ZM173.15 96.8096C166.68 96.7798 161.33 102.16 161.31 108.7C161.29 115.36 166.79 120.79 173.47 120.69C179.99 120.6 185.1 115.27 185.07 108.61C185.04 102.07 179.76 96.8399 173.16 96.8096H173.15ZM161.45 156.46C161.53 149.88 166.79 144.72 173.4 144.72C179.9 144.73 185.12 150.06 185.11 156.67C185.1 163.39 179.66 168.73 172.97 168.6C166.43 168.47 161.36 163.14 161.45 156.46Z" fill="black"/>
</svg>
