<svg width="17" height="17" viewBox="0 0 17 17" fill="none" xmlns="http://www.w3.org/2000/svg">
<path d="M12.6419 0.862854H4.36593C2.23341 0.862854 0.503906 2.59236 0.503906 4.72487V13.0008C0.503906 15.1334 2.23341 16.8629 4.36593 16.8629H12.6419C14.7744 16.8629 16.5039 15.1334 16.5039 13.0008V4.72487C16.5039 2.59236 14.7744 0.862854 12.6419 0.862854ZM15.1245 12.7253C15.1245 14.2483 13.8885 15.4842 12.3655 15.4842H4.64151C3.1185 15.4842 1.8826 14.2483 1.8826 12.7253V5.00122C1.8826 3.47822 3.1185 2.24231 4.64151 2.24231H12.3655C13.8885 2.24231 15.1245 3.47822 15.1245 5.00122V12.7253Z" fill="white"/>
<path d="M8.50391 4.86285C6.29612 4.86285 4.50391 6.65506 4.50391 8.86285C4.50391 11.0706 6.29612 12.8629 8.50391 12.8629C10.7117 12.8629 12.5039 11.0706 12.5039 8.86285C12.5039 6.65506 10.7117 4.86285 8.50391 4.86285ZM8.50391 11.53C7.03452 11.53 5.83674 10.3322 5.83674 8.86285C5.83674 7.39347 7.03452 6.19569 8.50391 6.19569C9.97329 6.19569 11.1711 7.39347 11.1711 8.86285C11.1711 10.3322 9.97329 11.53 8.50391 11.53Z" fill="white"/>
<path d="M12.5039 5.86285C11.9529 5.86285 11.5039 5.41387 11.5039 4.86285C11.5039 4.31183 11.9529 3.86285 12.5039 3.86285C13.0549 3.86285 13.5039 4.31183 13.5039 4.86285C13.5039 5.41387 13.0549 5.86285 12.5039 5.86285Z" fill="white"/>
</svg>
