<svg width="18" height="14" viewBox="0 0 18 14" fill="none" xmlns="http://www.w3.org/2000/svg">
<path fill-rule="evenodd" clip-rule="evenodd" d="M17.5 0.75C17.5 1.16421 17.1642 1.5 16.75 1.5L0.75 1.5C0.335787 1.5 0 1.16421 0 0.75C0 0.335786 0.335787 0 0.75 0L16.75 0C17.1642 0 17.5 0.335786 17.5 0.75Z" fill="white"/>
<path fill-rule="evenodd" clip-rule="evenodd" d="M17.5 6.75C17.5 7.16421 17.1642 7.5 16.75 7.5L6.75 7.5C6.33579 7.5 6 7.16421 6 6.75C6 6.33579 6.33579 6 6.75 6L16.75 6C17.1642 6 17.5 6.33579 17.5 6.75ZM3.5 6.75C3.5 7.16421 3.16421 7.5 2.75 7.5H0.75C0.335787 7.5 0 7.16421 0 6.75C0 6.33579 0.335787 6 0.75 6H2.75C3.16421 6 3.5 6.33579 3.5 6.75Z" fill="white"/>
<path fill-rule="evenodd" clip-rule="evenodd" d="M17.5 12.75C17.5 13.1642 17.1642 13.5 16.75 13.5L0.75 13.5C0.335787 13.5 0 13.1642 0 12.75C0 12.3358 0.335787 12 0.75 12L16.75 12C17.1642 12 17.5 12.3358 17.5 12.75Z" fill="white"/>
</svg>
