<svg width="18" height="14" viewBox="0 0 18 14" fill="none" xmlns="http://www.w3.org/2000/svg">
<path fill-rule="evenodd" clip-rule="evenodd" d="M17.75 1C17.75 1.41421 17.4142 1.75 17 1.75L1 1.75C0.585787 1.75 0.25 1.41421 0.25 1C0.25 0.585786 0.585787 0.25 1 0.25L17 0.25C17.4142 0.25 17.75 0.585786 17.75 1Z" fill="black"/>
<path fill-rule="evenodd" clip-rule="evenodd" d="M17.75 7C17.75 7.41421 17.4142 7.75 17 7.75L7 7.75C6.58579 7.75 6.25 7.41421 6.25 7C6.25 6.58579 6.58579 6.25 7 6.25L17 6.25C17.4142 6.25 17.75 6.58579 17.75 7ZM3.75 7C3.75 7.41421 3.41421 7.75 3 7.75H1C0.585787 7.75 0.25 7.41421 0.25 7C0.25 6.58579 0.585787 6.25 1 6.25H3C3.41421 6.25 3.75 6.58579 3.75 7Z" fill="black"/>
<path fill-rule="evenodd" clip-rule="evenodd" d="M17.75 13C17.75 13.4142 17.4142 13.75 17 13.75L1 13.75C0.585787 13.75 0.25 13.4142 0.25 13C0.25 12.5858 0.585787 12.25 1 12.25L17 12.25C17.4142 12.25 17.75 12.5858 17.75 13Z" fill="black"/>
</svg>
