<svg width="21" height="33" viewBox="0 0 21 33" fill="none" xmlns="http://www.w3.org/2000/svg">
<path fill-rule="evenodd" clip-rule="evenodd" d="M0 5.75586C0 2.57702 2.57696 6.10352e-05 5.7558 6.10352e-05H14.9651C18.1439 6.10352e-05 20.7209 2.57702 20.7209 5.75586V27.2442C20.7209 30.423 18.1439 33 14.9651 33H5.7558C2.57696 33 0 30.423 0 27.2442V19.5698C0 18.934 0.515392 18.4186 1.15116 18.4186C1.78693 18.4186 2.30232 18.934 2.30232 19.5698V27.2442C2.30232 29.1515 3.8485 30.6977 5.7558 30.6977H14.9651C16.8724 30.6977 18.4186 29.1515 18.4186 27.2442V5.75586C18.4186 3.84856 16.8724 2.30238 14.9651 2.30238H5.7558C3.8485 2.30238 2.30232 3.84856 2.30232 5.75586V13.4303C2.30232 14.066 1.78693 14.5814 1.15116 14.5814C0.515392 14.5814 0 14.066 0 13.4303V5.75586Z" fill="black"/>
<path fill-rule="evenodd" clip-rule="evenodd" d="M15.3489 1.91862C15.3489 2.97823 14.49 3.83722 13.4303 3.83722L7.29082 3.83722C6.23121 3.83722 5.37222 2.97823 5.37222 1.91862C5.37222 0.859006 6.23121 2.00272e-05 7.29082 2.00272e-05L13.4303 2.00272e-05C14.49 2.00272e-05 15.3489 0.859006 15.3489 1.91862Z" fill="black"/>
</svg>
