<svg width="14" height="22" viewBox="0 0 14 22" fill="none" xmlns="http://www.w3.org/2000/svg">
<path fill-rule="evenodd" clip-rule="evenodd" d="M0.25 4C0.25 1.92893 1.92893 0.25 4 0.25H10C12.0711 0.25 13.75 1.92893 13.75 4V18C13.75 20.0711 12.0711 21.75 10 21.75H4C1.92893 21.75 0.25 20.0711 0.25 18V13C0.25 12.5858 0.585786 12.25 1 12.25C1.41421 12.25 1.75 12.5858 1.75 13V18C1.75 19.2426 2.75736 20.25 4 20.25H10C11.2426 20.25 12.25 19.2426 12.25 18V4C12.25 2.75736 11.2426 1.75 10 1.75H4C2.75736 1.75 1.75 2.75736 1.75 4V9C1.75 9.41421 1.41421 9.75 1 9.75C0.585786 9.75 0.25 9.41421 0.25 9V4Z" fill="black"/>
<path fill-rule="evenodd" clip-rule="evenodd" d="M10.25 1.5C10.25 2.19036 9.69036 2.75 9 2.75L5 2.75C4.30964 2.75 3.75 2.19036 3.75 1.5C3.75 0.809644 4.30964 0.25 5 0.25L9 0.25C9.69036 0.25 10.25 0.809644 10.25 1.5Z" fill="black"/>
</svg>
